<svg xmlns="http://www.w3.org/2000/svg" viewBox="0 0 370.47 101.97"><path d="M18.53,68.18a.13.13,0,0,0,.13-.14.49.49,0,0,0,.14.28c0,.13,0,.13-.14.13S18.53,68.32,18.53,68.18Zm1.79,2.21c-.27-.28-.55-.69-.83-1a1.56,1.56,0,0,1-.13-.69c-.14-1,0-1.94-.14-2.77a.49.49,0,0,0-.14-.27c-.14.27,0,.69,0,1.1v.28c-.14,0-.14.14-.28.14l-.14-.14c.14-.55-.13-1,0-1.52s.56-.83.7-1.38a.78.78,0,0,0,.41-.7,5.9,5.9,0,0,0,.14-2.21l.14-.14c.83-.41.55-1,.83-1.66.14-.14.14-.41.27-.55s0-.14.14-.14v.28h.14c.42-.28.42-.83.55-1.25a1.41,1.41,0,0,0,.56-1.1,2.05,2.05,0,0,0,.14-1c-.14-.28,0-.42.41-.56h.42a.13.13,0,0,1,.13-.13c-.13,0-.13-.14-.13-.14s-.28-.14-.42-.14a.49.49,0,0,0,.28-.14c.27-.14.55,0,.41-.41.14-.42.56-.7.56-1.11a.27.27,0,0,0,0-.42.25.25,0,0,1,0-.41l.69-.69c-.14-.42.14-.56.55-.83,0,.27.42.14.69-.14a3.2,3.2,0,0,0,.42-.69l-.14-.14c-.14-.14-.28-.14-.42-.28a1.87,1.87,0,0,0,.42-.55.14.14,0,0,1,.14-.14h.69c.28-.14.41-.69.55-1a8,8,0,0,1,.56-1.1c.13-.14.13-.28,0-.28v-.14c-.14.14-.14.14-.14.28-.42.27-.28.83-.69,1-.14.13-.14,0-.14,0l-.14-.14a1.26,1.26,0,0,0,.41-1c0-.14.28-.28.42-.55a2.92,2.92,0,0,1,.55-.83,1.72,1.72,0,0,0-.83-.14c-.55,0-1.1.14-1.52.14a9.8,9.8,0,0,1-1.94-.14,1.76,1.76,0,0,0-.83.14l-3.32-.83c.14-.14.42-.14.14-.42h.14l4.15-.69A.8.8,0,0,0,25.3,43c.14-.14.42-.14.7-.28.13,0,.27-.13.41,0a.85.85,0,0,0,.55-.13.51.51,0,0,0,.42-.14,27.89,27.89,0,0,0,3-.56h.14l.14-.27a.49.49,0,0,0,.14-.28,2.66,2.66,0,0,1,.69-.41c.14,0,.14-.42.28-.56s.27-.14.41-.14.42,0,.42-.41h.13c.14-.14.42-.14.42-.28.41-.41.41-.41.83-.41V39c-.42,0-.42,0-.28-.55V38c0-.14.14-.28.14-.41a.43.43,0,0,1,.14-.28v.28a.49.49,0,0,1-.14.27.43.43,0,0,0,.28-.14.48.48,0,0,0,.14-.41c.13-.28.13-.42.41-.14H35c.14-.14.14-.28.27-.41l-.13-.14c-.14-.14-.14,0,0-.28a1.81,1.81,0,0,0,.55-.83.49.49,0,0,1,.28.14c.13-.14.41-.28.55-.42v-.13h-.28c-.27.41-.41,0-.55,0,.14-.28.14-.42.41-.56s.42-.14.7-.27c.13.27.27.13.83-.42h-.28c-.28.14-.42.28-.55-.14h-.28c-.14.14-.42.14-.55.28h-.14v-.28a6.28,6.28,0,0,1,1-.41v.27c0-.13.13-.13.27-.13v-.14c.56.41.56-.14,1-.14V33h-.14c-.14-.14-.41-.14-.41-.28s.14-.41.14-.55.13-.41.41-.41c0,0,.14-.14,0-.14a.14.14,0,0,0-.14-.14.43.43,0,0,1,.28-.14,2.06,2.06,0,0,1,.41-.28v-.27c-.13,0-.13,0-.13.14a.54.54,0,0,0-.42.13c.14-.27-.41-.41-.14-.69s.42-.41.69-.55c.42-.14.56-.55.7-1a3.88,3.88,0,0,1,.69-1c.14-.41.41-.27.55-.41.28.14.28.14.28,0a2.09,2.09,0,0,1,.55-.56c0-.13.14-.13.14-.27s.14-.28.28-.42,0-.14.13-.27h-.55c.28-.42.42-.83,1-.83-.14,0-.14.14-.28.41.56,0,.69-.41,1.11-.83h-.28c-.14,0-.27,0-.14-.14v-.41c-.27.27-.83.27-1.24.41s-.28,0-.55.14c-.56.28-1.11.56-1.8.83h-.56l-5.53,1.94a4.91,4.91,0,0,0-1.8.41c-.41.42-1,.28-1.38.56a1.81,1.81,0,0,0-1.38.41h-.14a3.51,3.51,0,0,0-2.08.42,8.34,8.34,0,0,1-1.93-.14,3.62,3.62,0,0,1-2.49-.83,1,1,0,0,0-.7-.14c0-.14-.13-.14-.13-.28h.13c.42-.27,1-.55,1.25-.69.55,0,1-.28,1.38-.28a1.89,1.89,0,0,0,.83-.27,8.53,8.53,0,0,0,1.94-.83c.69-.28,1.24-.42,1.94-.69.27-.14.69-.14,1-.28.42-.14.7-.28,1.11-.42a1.17,1.17,0,0,0,.83-.41,3.29,3.29,0,0,1,1.25-.42c.55-.27,1.24-.55,1.93-.82.14-.14.42,0,.69-.14a1,1,0,0,0,.56-.28c.41.14.41-.28.55-.41s.55-.14.69-.14c-.14.14-.14.14-.14.27h.14c.14,0,.28.14.42,0s.69-.13,1-.55a.13.13,0,0,1,.13-.14l3.6-1a8.35,8.35,0,0,0,1.66-.69c.14,0,.28-.14.55-.14s.42.14.56-.13a.14.14,0,0,0,.14-.14c.13,0,.27-.14.55-.28l.14.28c-.14.14.14.14.27.27.14-.13.14-.27.28-.41l.14-.14c-.28-.55.28-.69.55-1,.42-.55,1.11-.55,1.25-1.24.14-.28.41-.56.55-.83a.14.14,0,0,0,.14-.14c-.28-.28,0-.42.14-.56A12.61,12.61,0,0,0,50.34,14c.28-.27.56-.69.83-1a.48.48,0,0,0,.14-.41c.14-.28.14-.42.42-.42s.41-.41.69-.69c0-.27,0-.55.41-.27,0,.13.42-.14.42-.28,0-.42.41-.69.55-1s.28-.28.42-.28a2.13,2.13,0,0,1,.41.56c.14.14.41.14.28.41s.27.56.27.69.14.28-.14.56c0,.27-.27.69-.27,1.1a4.25,4.25,0,0,1-.55,1.11,3.49,3.49,0,0,1-.7,1.11,5.14,5.14,0,0,1-.69,1.24.43.43,0,0,0-.14.28,6.5,6.5,0,0,0-.83,1,1.06,1.06,0,0,1,.56-.14v.14c-.28,0-.42.13-.56.13l-.27.28A3.76,3.76,0,0,1,52.83,18a.3.3,0,0,0,.28-.27c0-.28.14-.28.28-.42s.27-.14.55-.14a.14.14,0,0,1,0,.28c0,.14-.14.14-.28.14.14,0,.28.14.42.14.41,0,.55-.28.41-.69a.54.54,0,0,0,.42.13c.13,0,.27.14.55,0,0,0,.28,0,.28.14a.25.25,0,0,0,.41,0v-.41a.51.51,0,0,1,.42-.14v.14c-.28.14,0,.27,0,.27a6.71,6.71,0,0,0,.69-.13,8.08,8.08,0,0,1,1-.28.5.5,0,0,0,.41-.14h.14a2.24,2.24,0,0,0,2.07-.41l.42-.42c.14-.14.28-.14.55-.28,0,.14.14.28.14.42s0,.28.28.14a7,7,0,0,0,1.66-.28.14.14,0,0,1,.14.14.49.49,0,0,1,.27.14,4.07,4.07,0,0,1,1.8-.28c.28,0,.14-.14.14-.42l.14-.13a.49.49,0,0,0,.14-.28h.83l.13.14a6.28,6.28,0,0,0-.69.14,1,1,0,0,0-.41.27h.27a4.7,4.7,0,0,0,1.39-.14A10.36,10.36,0,0,1,70,15.2a1.76,1.76,0,0,1,.83-.14c.42,0,.83-.14,1.25-.14h.55c-.27-.28-.41-.28-.55-.28s-.14,0-.28-.13a.14.14,0,0,0,.14-.14h.42c.13.14.27,0,.41,0a.49.49,0,0,1,.28-.14v.28a3.19,3.19,0,0,0,1.1-.28.14.14,0,0,0,.14-.14c.28.42.42.14.69,0a1.06,1.06,0,0,1,.56-.14h1.66c.14,0,.27.14.41.14a.49.49,0,0,1-.41.14,1.51,1.51,0,0,1-.69.14c-.28.14-.42.27-.56-.14h-.14a4,4,0,0,0-1.24.28h-.14c-.14,0-.28-.14-.28,0s-.13.13-.27.41a.49.49,0,0,1,.41-.14.62.62,0,0,1,.69,0h.56c.27.14.69,0,1.1,0,.14,0,.28-.14.42-.14a.86.86,0,0,1,.55-.13,1.25,1.25,0,0,0,1-.42q.21-.42.42,0v.28l.13.14c.14-.42.42-.28.56-.28s.41-.14.55-.14.42-.14.42,0c.27.14.13.28,0,.42a.13.13,0,0,0-.14.13l.14.14a.49.49,0,0,0,.27-.14A1.25,1.25,0,0,1,82,14a7.47,7.47,0,0,0,2.49.14,3,3,0,0,0,1.11.14c.41,0,.83.14,1.24.14H88c.14-.14.27,0,.41,0l.14.14.14-.14.14-.14a2.5,2.5,0,0,0,1,.28.42.42,0,0,0,.27.13c.14,0,.28,0,.28.14l-.14.14v.14l.14.14a1.07,1.07,0,0,1,.55.13l-.14.14a.83.83,0,0,1-.55-.14c-.41-.13-.69-.13-1.11-.27a1.72,1.72,0,0,0-.83-.14,6.79,6.79,0,0,1-1.66.28,2.13,2.13,0,0,0,.83.27,1.52,1.52,0,0,0,.7-.14c.13,0,.27.14.41.14l.14.14c.55-.14.83.42,1.38.14.14,0,0,.14.14.14a2.55,2.55,0,0,1,1,.28h.14c.41.41.83.13,1,.27a2.63,2.63,0,0,1,1-.14l.14.14c-.14.14-.27.14-.41.28a3.13,3.13,0,0,1-1.52.41A4.1,4.1,0,0,1,90.18,17L90,16.86a.51.51,0,0,0-.14-.42c-.13.14-.27.14-.41.28a.14.14,0,0,1-.14.14c-.28,0-.69-.14-1-.14v-.28a.19.19,0,0,0,.28,0h.14a.14.14,0,0,0-.14-.14,3,3,0,0,0-1.11.14c-.27,0-.41.14-.69.28l-.14.14.14.14a1,1,0,0,1,.55-.14c.28,0,.28-.14.14-.28.28-.14.28.28.56.28-.14.14-.14.41-.28.41s-.28.14-.42,0a.61.61,0,0,0-.69-.14h-.14c0-.27,0-.55-.41-.55h-.55c.13.14.13.28.27.28a.49.49,0,0,1-.41-.14H85.2v.14a.51.51,0,0,1,.42.14c.13,0,.13.13.27.13h-.27c-.14,0-.28-.13-.42.14s-.41.28-.55.28.14-.28.27-.55c0,.13,0,.13.14.27,0-.27,0-.27-.14-.41h-.13c-.28.14-.42.27-.7.41a.18.18,0,0,1-.27,0c-.14,0-.14-.14-.28-.27.14,0,.14,0,.28-.14H84v-.14h-.42c-.28-.14-.41-.14-.55.28-.14.27-.28.27-.56.27a.25.25,0,0,0-.41,0,1.13,1.13,0,0,1-1,.14c-.14,0-.14-.14,0-.28s.14-.13.14-.27a.51.51,0,0,1-.42-.14.5.5,0,0,0-.13.28c0,.27-.14.27-.42.41a17.1,17.1,0,0,0-2.49.55,3,3,0,0,0-.69.42h-.28c.14-.14.28-.14.42-.28-1-.28-1.39-.28-1.8,0a.83.83,0,0,0-1.25,0v-.41H74c-.42.13-.7.55-1.11.55l-.14.14c-.14,0-.41-.14-.55-.14h.14c-.28.14-.42.28-.7.42h-.13l.13-.14c.28-.14.42-.28.56-.28a2.55,2.55,0,0,0-1-.28c-.14,0-.42.14-.55.14-.42.14-1,.28-1.39.42a18.6,18.6,0,0,0-2.07.55c-.42.14-1,.42-1.39.55v-.13c.14,0,.28-.14.42-.14s.14-.14.14-.28h-.14c-.28,0-.55.14-.83,0a.14.14,0,0,1-.14-.14.14.14,0,0,0,.14-.14c-.14,0-.42-.13-.42,0-1,.28-1.79.56-2.62.83a6.06,6.06,0,0,0-.7.14c-.55.28-.83.55-1.38.83-.14.14-.41,0-.69.42l-.14-.14h-.69c0-.14,0-.14.14-.28s.41-.41.83-.55l.14-.14-.14-.14a1.91,1.91,0,0,1-.69.42c-.42,0-.7.41-1.25.41-.14,0-.41,0-.28.42-.41,0-.82.41-1.24.13,0-.13-.14,0-.28.14s-.27.14-.41.28c-.14-.14-.14-.14-.14-.28s.14-.14.28-.14c-.14-.13-.28,0-.42,0l-.83.42a1,1,0,0,0-.41.14,1.45,1.45,0,0,1,1-.83c.14,0,.42.14.42-.28H55a5.43,5.43,0,0,1-1.1.42c-.55.27-1.25.27-1.8.55a.5.5,0,0,1-.41.14,2.4,2.4,0,0,0-1.39.41c-.41-.13-.83.28-1.24.14L49,22.11c-.14.14-.28.42-.42.56-.41.41-.69,1.1-1.24,1.66a1.67,1.67,0,0,1-.83.83c-.14.14-.28.41-.42.55a1.24,1.24,0,0,1-.55,1.11,18,18,0,0,1-1.11,1.79c0,.14-.13.14-.27.28s-.14.42-.28.69a6.25,6.25,0,0,0-.69,1,14.51,14.51,0,0,1-1.25,1.52,8,8,0,0,0-1.1,1.8,13.93,13.93,0,0,1-1.25,1.8.49.49,0,0,1-.14.28,2.65,2.65,0,0,1-1.1,1.79c-.28.28-.28.56-.42.83a9.44,9.44,0,0,0-.69,1.11,3.68,3.68,0,0,1-.55,1c.14.14.14.28.27-.14a3.18,3.18,0,0,1,.56-.14c.41.28.69,0,1-.14.13-.13.13-.13.27,0a1.63,1.63,0,0,0,1.11.14,7.26,7.26,0,0,0,1-.41.14.14,0,0,1,.14-.14c.13,0,.55.14.69,0h2.21A1.84,1.84,0,0,0,45,39.4a3.69,3.69,0,0,0,1.24,0c-.14-.27,0-.27.28-.41a9.36,9.36,0,0,0,1.94-.28c.13,0,.27.28.27.28h.56c.27-.14.41-.42.55-.42s.27-.13.41-.13.42-.14.7-.14a3.76,3.76,0,0,1,1.24.14h.28c.55-.56,1.1-.42,1.52-.56-.28.42-.28.42.14.28A10.3,10.3,0,0,1,56.15,38a.49.49,0,0,0,.28-.14c0-.14,0-.27.14,0h.14c0-.27.27-.27.41-.27s.41-.28.69-.28H58a.5.5,0,0,0,.41.14c.28-.14.56,0,.7-.28s.55-.14.83-.14a3.85,3.85,0,0,0,1.79,0,.45.45,0,0,1,.42.42,5.5,5.5,0,0,1,.69,1.24v.69a.89.89,0,0,1-.41.7l-1.25.41a5.6,5.6,0,0,1-1.52.14,1.42,1.42,0,0,0-1,.55l-.28-.14c-.13-.13-.27-.13-.27.14a.27.27,0,0,1-.42.14.25.25,0,0,0-.41,0,.51.51,0,0,1-.42.14h-.13c0-.14,0-.14-.28,0-.56-.14-1.11.41-1.52,0h-.14c-.55.28-1,.55-1.52.83,0,0-.28,0-.28-.14a.26.26,0,0,0-.42,0c-.27.28-.69,0-1,.14-.42,0-.83.14-1.11.14s-.55-.14-.83-.28a1.32,1.32,0,0,0-.41.14c-.14.28-.28.28-.56.28s-.27,0-.55,0-.42.13-.55.27S47,43,46.75,43h-.56a1.25,1.25,0,0,0-.69.14c-.41-.14-.55.14-1.11.14-.13-.14-.41,0-.69,0s-.14,0-.27-.14c-.14.41-.7.14-.83.28s-.28.13-.42.13-.28-.13-.41-.27c-.28-.14-.42-.14-.42.14,0,.13-.41.13-.69.13a5.48,5.48,0,0,1-2.08.42c-.27.14-.55,0-.83.14a1,1,0,0,0-.55.14,3.78,3.78,0,0,0-1.8.27H34.3c-.14.14-.28.28-.28.42s-.14.14-.28.14-.55.13-.14.41c.14,0,0,.14,0,.28s-.41.27-.55.55-.28.28-.14.42v.13c-.27.28-.41.7-.69.83s-.14.28-.14.28c.14.28.14.28,0,.42s-.14,0-.14.13-.27.28-.41.56a1,1,0,0,0-.28.69c-.41.69-1,1.52-1.38,2.21a5,5,0,0,0-.42,1c-.27.14-.41.28-.27.69,0,.14-.28.14-.28.42s-.55.41-.69.69l-.42.83c-.13.14-.27.41-.41.55-.42.42-.42,1-.69,1.52A7.94,7.94,0,0,1,26,59.19l-.28.27c-.42,1.11-1,1.94-1.25,2.77a9,9,0,0,1-1.1,1.94c-.14.41-.56.69-.42,1.1-.69.56-.14,1.52-.69,2.08a2.88,2.88,0,0,0-.69,1.24,3,3,0,0,0-.69,1.11c-.14.14,0,.28,0,.41s-.14.28-.14.42C20.6,70.39,20.32,70.53,20.32,70.39Zm-1.66-1.52a.49.49,0,0,0,.14-.28c0,.14.14.14.14.28l.42.83v.14A6.26,6.26,0,0,1,18.66,68.87Zm2.63-10.51a.51.51,0,0,1,.14-.42l.14-.14v.28c0,.14-.14.28-.14.41Zm3.88-6.23A5,5,0,0,0,26,51.3c.13,0,.13-.14.13-.14s-.27-.14-.27,0a1.21,1.21,0,0,1-.83.42.49.49,0,0,1-.14.41.43.43,0,0,0,.14.28A.14.14,0,0,1,25.17,52.13Zm.41-1.38h0Zm.28-.56a.49.49,0,0,0,.27.14c-.13,0-.13.14-.27.14l-.28.28C25.58,50.61,25.72,50.47,25.86,50.19ZM26,51.72v-.14a.14.14,0,0,0-.14.14s.14,0,.14.13Zm.55-3c0-.14,0-.14.14-.14v.28A.14.14,0,0,0,26.55,48.67Zm1.52-.41c.14,0,.28-.14.42-.28v-.14h-.14l-.42.42Zm2.35-.42-.14-.14V48l.14.14Zm1.25-6.36c.14,0,.14-.14.27-.28h-.27c0,.14,0,.14-.14.28a.14.14,0,0,1,.14.14Zm.69-.69a.14.14,0,0,0-.14-.14v.28A.14.14,0,0,0,32.36,40.79Zm.69-2.63h.14a1.79,1.79,0,0,0,.41.28h-.27S33.05,38.3,33.05,38.16Zm.83,2.49v-.14c-.14,0-.14,0-.14.14s-.27.14-.41.28a.13.13,0,0,1-.14.13v.14C33.47,41.2,34,40.93,33.88,40.65Zm.55-1.94a.43.43,0,0,0,.28-.14c.14-.13.28-.27,0-.55a.43.43,0,0,1,.14-.28,1.41,1.41,0,0,0-.55.28c.41.42-.14.28-.14.42l-.14.13c0,.14.14.14.14.28S34.3,38.85,34.43,38.71Zm1-3.32c-.27.42-.83.56-.69,1.25C34.3,36,34.43,35.67,35.4,35.39Zm0,5a.75.75,0,0,1-.55-.27.18.18,0,0,0,0,.27c0,.14.14.42.14.56A1.93,1.93,0,0,0,35.4,40.37Zm0-2.21a.42.42,0,0,0-.27-.14.14.14,0,0,0-.14.14l.14.14A.45.45,0,0,1,35.4,38.16Zm.83-2.08L36,35.81c0,.14-.14.14,0,.27a.42.42,0,0,1,.27.14Zm0,.83c.14,0,.28-.13.42-.27h-.14a.51.51,0,0,0-.42.14v.13S36.23,37.05,36.23,36.91Zm.42-1.38c.14-.14.14-.28.27-.41l-.41.41Zm.27-3a.44.44,0,0,0-.13.27h-.14Zm0-.14c0-.14.14-.14.28-.14v.14l-.14.14h-.14ZM39,34.29a.43.43,0,0,0-.14-.28c0,.14,0,.14-.14.28a.13.13,0,0,1,.14.13C39,34.42,39,34.42,39,34.29ZM39.28,30v-.14c-.14.14-.28.28-.28.41C39.14,30.14,39.28,30.14,39.28,30Zm.69-.56a.46.46,0,0,0,.27-.13c.28-.28.28-.42.14-.56v-.69l-.27.28c-.28.14-.28.69-.42.83v.27Zm.14,3.74V33H40a.14.14,0,0,0-.14.14Zm.13-6.09V27c.56-.13.7-.55,1-1h.14c-.14.27-.14.55-.28.69s-.55.41-.83.55Zm3.19-3a.13.13,0,0,0,.13-.14.48.48,0,0,1-.41.14C43.15,24.19,43.29,24.19,43.43,24.05Zm1.66,18.81v-.14a.51.51,0,0,0-.42.14.49.49,0,0,0-.28.14c0,.14.14.14.28.14S45,42.86,45.09,42.86Zm3-26.56a.14.14,0,0,1,.14.14c-.14.14-.28.42-.42.56h-.14C47.85,16.72,48,16.58,48.13,16.3Zm2.77-3.87c.13,0,.13-.14.13-.28a.49.49,0,0,0,.28.14c-.14.14-.14.28-.28.28Zm.83,8.85v-.14c-.14.14-.14.28-.28.28l.14.14A.43.43,0,0,0,51.73,21.28Zm-.28,16.88h.28v.14h-.28Zm2.21-16.6-.14.14h-.13A.45.45,0,0,1,53.66,21.56Zm.56-12c.13,0,.13-.14.13-.14h.28c-.14.14-.14.27-.28.27A.13.13,0,0,0,54.22,9.53ZM55.6,20c0-.14,0-.14.14,0-.14-.28-.28-.28-.28-.42-.14.14-.28.14-.42.28l.14.14ZM57,16.58a1.84,1.84,0,0,1,1.66-.28L57,16.72Zm.55,21.3a.48.48,0,0,0-.41-.14H57l.28.28C57.4,37.88,57.4,37.88,57.53,37.88Zm.83-17c-.13.14-.27.27-.41.27C58.09,21,58.23,20.87,58.36,20.87Zm.14,16.87c-.14,0-.27-.13-.41-.13v.13a.49.49,0,0,0,.27.14Zm1.25.14a.14.14,0,0,0,.14-.14l-.14-.13c-.28,0-.56,0-.69.13v.14Zm.14-22,.27-.28v.14c0,.14-.14.14-.27.28Zm3.18-.42.14-.14a1.07,1.07,0,0,1,.55-.13h.14l-.14.13c-.14.14-.28.14-.28.28A1.32,1.32,0,0,1,63.07,15.47Zm2.9-.41c.14,0,.14-.14.28-.14h.28c0,.14-.14.14-.28.28S66.11,15.06,66,15.06Zm.56,3.18a2.54,2.54,0,0,1,1.1-.28c.14,0,.28,0,.28-.14s0-.13,0-.13-.14,0-.28-.14a.14.14,0,0,0-.14.14c-.41.13-1,.41-1.38.55C66.25,18.24,66.39,18.38,66.53,18.24Zm1.66-3.32c.13,0,.27-.14.41-.14a3.21,3.21,0,0,1,.69-.41l.14.14s-.14,0-.14.13h1c-.41.14-.83.14-1.11.28a.5.5,0,0,0-.41.14A.34.34,0,0,1,68.19,14.92Zm3.87,2.35c-.14-.14-.14-.14-.28-.14h-.14a.14.14,0,0,0,.14.14Zm1,.28-.14-.14c-.28,0-.42.14-.69,0v.14a1.21,1.21,0,0,0,.69.14Zm.27-2.63a.14.14,0,0,0,.14-.14H73.3s0,.14-.13.14Zm.14,2.63h.28a.43.43,0,0,0-.28-.14l-.14.14Zm.69-.28H74a.14.14,0,0,0-.14.14l.14.14C74,17.41,74.13,17.41,74.13,17.27Zm.14-1.66v-.14l-.14.14a.14.14,0,0,0,.14.14Zm.83,1.66a.14.14,0,0,0,.14-.14V17H75.1c-.14,0-.14.13-.14.27S75,17.41,75.1,17.27Zm.14,1.66a.14.14,0,0,1,.14-.14h.14c-.14.14-.14.14-.14.28Zm.55-1.8c-.13-.27-.13-.27-.13-.41-.14.14-.14.28-.28.28s.14.13.14.13Zm.7.28H77c.14-.14.14-.28.28-.41-.14,0-.28-.14-.42-.14h-.14c-.14,0-.14.14-.27.14s-.28-.14-.28,0-.14.13-.28.27a.49.49,0,0,1,.28.14Zm.41,1.25H77v.13H76.9Zm1-1.39a1,1,0,0,0,.55-.14h-.55c-.14,0-.14,0-.14.14Zm.69-2.63v-.13c-.14,0-.28.13-.41.13v.14C78.28,14.78,78.42,14.64,78.56,14.64Zm1.11.14c.14,0,.14-.14.27-.14l-.13-.13h-.28c-.14,0-.14.13-.28.27Zm.69-.14h-.28a.49.49,0,0,1,.14.28C80.22,14.78,80.36,14.78,80.36,14.64Zm1,1,.14-.14c-.14,0-.14,0-.28.14Zm.27-1.1v-.14c-.13,0-.13,0-.13.14ZM82,15.75c0-.14-.14-.14,0-.28a1.08,1.08,0,0,0-.42.28c.14,0,.14.14.28.14Zm1.66-1.38c.14,0,.14,0,.14-.14h-.14l-.14.14Zm.28.27c-.14,0-.28,0-.28-.13v.13Zm.69.28c0-.14,0-.28-.14-.28H84c-.14.28,0,.42.41.42C84.51,15.06,84.51,14.92,84.65,14.92Zm1-1h.55v.14A1,1,0,0,1,85.62,14Zm.55,3.18h.28c0,.42-.14.56-.56.42C86,17.41,86,17.27,86.17,17.13ZM88.8,17c.14.13.14,0,.27,0a.13.13,0,0,0,.14.13c-.14,0-.14.14-.27.14Zm.27-.56c.14,0,0-.14,0-.14a.13.13,0,0,0-.13.14l.13.14Zm.42-1.66-.14-.14a.14.14,0,0,0-.14.14.14.14,0,1,0,.28,0Zm1,1.66h.14c-.14-.14-.14-.14-.28-.14v.14ZM91,15.06h0Zm.42,1.8a.14.14,0,0,0-.14-.14s-.14.14,0,.14V17A.14.14,0,0,1,91.43,16.86Zm-.14-1.8h.41a.14.14,0,0,1-.14.14h-.27Z"/><path d="M69.15,73.43a4.83,4.83,0,0,1-1.66-2.07c-.14-.28-.41-.42-.55-.83s-.28-.55-.42-.83a4,4,0,0,0-.27-1.25,11.66,11.66,0,0,1,0-2.21v-.41a3.93,3.93,0,0,1,.14-1.8v-.14c0-.42.13-1,.13-1.52.14-1.25.28-2.35.42-3.6,0-.28.14-.41.28-.69a5.17,5.17,0,0,1,.55-1.38c.14-.28.28-.42.41-.7s.28-.27,0-.55-.27-.41.14-.55a.43.43,0,0,1,.14-.28c0-.14.14-.41.14-.55.28-.42.55-.69.83-1.11a4,4,0,0,1,.41-1.11c0-.13.14-.27.28-.41s.14-.28.28-.42,0-.55.27-.83c.14,0,0-.27-.13-.55h.27c0-.41.28-.28.56-.41.13-.14.13-.28-.14-.42,0-.14,0-.14-.14-.28h.14c.14,0,.27-.13.41-.13,0-.28-.14-.42-.27-.7l-.14.14A1.89,1.89,0,0,0,71.5,47c.14-.27.14-.41-.27-.55L70,45.63h-.14c.14-.69-.55-.69-.69-1.25h.28c.83.42,1.52,0,2.35-.27a6.59,6.59,0,0,0,1.38-.69c.56-.28,1.11-.7,1.66-1l.14-.14c-.41-.42.14-.42.28-.55s.41-.28-.14-.56a.14.14,0,0,1,.14-.14c.14-.13.41-.13.28-.41l.27-.14c.56,0,.69-.14.56-.69.41-.42.27-1,.55-1.25A8.42,8.42,0,0,1,78,37.74c.27-.27.41-.55.27-.83,0-.13,0-.27.14-.27.42-.14.55-.42.69-1a1.4,1.4,0,0,1,.56-1c.13-.28.41-.41.55-.55s.28-.56.41-.83c.28-.28.42-.83,1-1l.14-.14c.14-.55.42-.69.83-1S83,31,83,30.69a1.34,1.34,0,0,1,1-1,.49.49,0,0,0,.14-.28v-.27c.56-.69,1-1.25,1.39-1.8.27-.28.41-.55.69-.83s.27-.14.41-.28.42-.41.28-.69l.14-.14a3.53,3.53,0,0,1,1-1.1l.83-.83c.13,0,.13-.14.13-.14v-.14c.42.14.14-.28.28-.41s.41-.28.55-.42c.14-.41.56-.55.7-.83s.69-.55.69-1c0-.14.27-.28.41-.28.14-.27.55-.41.42-.82h.13c.42,0,.42-.28.56-.56s.27-.27.41-.41a5.9,5.9,0,0,0,.83-1c.14-.28.42-.28.56-.55a1.92,1.92,0,0,1,.55-.56.14.14,0,0,1,.14-.14,7.74,7.74,0,0,0,1.38-1,.29.29,0,0,0,.28-.27l.41-.42a3.88,3.88,0,0,0,1.39-1.24,3.15,3.15,0,0,1,1-.55c.14-.14.28-.14.28-.28a1.14,1.14,0,0,1,1.11-.42h.55c.28-.27.69,0,1,.14a6.84,6.84,0,0,1,1.38.69c.14,0,.14.14.28.14a2.92,2.92,0,0,0,1,.42c.55.27.55.83.69,1.24a2,2,0,0,1,0,1.8c-.28.55-.55,1.11-.83,1.66-.14,0-.14.14-.14.28a10.65,10.65,0,0,1-1,1.66c0,.13-.27.13-.27.13a3,3,0,0,0-.56.83c-.14.28-.41.42-.55.7a.42.42,0,0,0-.14.27,2.43,2.43,0,0,1-.69.56c-.14.14-.28.14-.28.41s0,.28-.14.42a10.92,10.92,0,0,1-1.1,1.52,1.76,1.76,0,0,1-.56.41c-.13.14-.41.28-.55.56a4.24,4.24,0,0,1-1,1.24A29.91,29.91,0,0,0,96,29.44l-.83.83h-.42c-.14.7-.83,1.25-1.38,1.8-.14.14-.28.42-.42.56-.27.41-.41.83-1,1.1-.28,0-.28.28-.42.28-.55.28-.69.69-1,1.24-.13,0-.13.14-.13.28a1.33,1.33,0,0,1-.7.55l-.27.28-.14.14c-.55.14-.69.69-1,.83a4.71,4.71,0,0,0-1.24,1.11h-.28c-.28.13-.42.13-.42.41l-.13.14c-.56.41-1.25,1-1.8,1.38a10.86,10.86,0,0,1-1.39.83,2.76,2.76,0,0,1-.83.56c0,.13-.13.13-.27.27s-.28.14-.42.28-.41.28-.55.41a2.89,2.89,0,0,1-.83.56v.14a8.56,8.56,0,0,0-1.94,1h-.14a2.76,2.76,0,0,1-.83.56,8.72,8.72,0,0,1-1.66.69c0,.14-.13.14-.13.28-.14.41-.56.55-.7.83a.13.13,0,0,0-.13.13c.41.42-.14.56-.28.83a.49.49,0,0,0-.14.28c-.28.42-.41.69-.69,1.11,0,.14-.28.14,0,.27v.14a2.76,2.76,0,0,1-.42.69c-.13.28-.27.42-.27.7s-.28.27-.42.27-.27.14,0,.28.14.28,0,.41-.27.14-.27.28a.14.14,0,0,0-.14.14,1.17,1.17,0,0,1-.28,1v.41a.14.14,0,0,0-.14.14c-.14.28-.55.42-.41.69s-.14.28-.28.42,0,.14-.14.27c.14,0,.14,0,.28-.13,0,.27.14.69-.28.69l-.14.14c.28.41.14.41-.27.69-.14,0-.42.27-.42.69a.82.82,0,0,1,.14.55c-.14,0-.14.14-.28.14-.27.28-.27.28,0,.42a.62.62,0,0,1,0,.69,2,2,0,0,0-.55.41c0,.14,0,.42.14.42a.49.49,0,0,1,.14.41c-.14.28-.28.69-.42,1v.42c0,.27,0,.55-.27.69v.27a1.35,1.35,0,0,1-.28,1.25c-.14.14-.14.55-.14.83h.28c0,.14,0,.14-.14.28s-.14.41-.14.55a5.87,5.87,0,0,1,0,2.21c0,.28.14.56.14.83a3.82,3.82,0,0,0,.14,1.25c0,.27.14.27.41.27a7.93,7.93,0,0,0,2.08-1.52c.14-.14.27-.27.41-.27.42-.14.83-.14,1.11-.28s.28-.28.41-.28v-.14c.42,0,.42-.41.7-.69.13-.27.55-.55.69-.83a20.93,20.93,0,0,0,1.8-1.66l.83-.83c.13-.14.41-.27.55-.41.55-.69,1.11-1.25,1.66-1.94a3,3,0,0,1,.69-.55c.28-.14.42-.42.69-.42s.14-.14.28-.14.28-.27.41-.27.28-.28.14-.56,0-.13.14-.27.42-.14.42-.56h.13l.14-.13c0-.28.28-.28.42-.42s.55-.41.83-.69h.13a.51.51,0,0,0,.42-.14,2.16,2.16,0,0,1,1-1l.14-.14c.14-.13.14-.41.27-.41a3.83,3.83,0,0,1,1.11-1,.14.14,0,0,1,.14-.14c0-.41.28-.55.55-.69a2.31,2.31,0,0,0,1-.55c.14,0,.14-.14.28-.14s.27-.14.41-.28.14-.41.28-.14h.27a1.39,1.39,0,0,0,.84-1.24s0-.14.13-.14a3.84,3.84,0,0,1,.83-.69h.14c.14-.14.28-.14.28-.28s.14-.14.27-.14l.42-.41a6.42,6.42,0,0,0,1-.83c.41-.14.83-.42,1.24-.55l.42-.42c0-.14.14-.14.27-.28,0,.14,0,.28-.13.28a.5.5,0,0,0,.41-.14,4.51,4.51,0,0,1,1.8-1.38,5.31,5.31,0,0,1,1-.55,1.91,1.91,0,0,1,.83-.28,2.54,2.54,0,0,0,1.1-.28c.42-.14.7-.41,1.11-.55v.28c.14,0,.14,0,.28-.14a1.15,1.15,0,0,1,1-.28c.13,0,.27,0,.41-.28s.42-.41.55-.69c.14,0,.28-.14.28,0,.55.14,1-.27,1.52-.41a1.14,1.14,0,0,0,.69-.42,4.87,4.87,0,0,0,1.25-.55v.14a.49.49,0,0,1-.28.14,12.26,12.26,0,0,1-1.38,1.24c-.28.28-.55.42-.83.69h-.14c-.14.14-.41.14-.55.28s-.42.28-.69.14-.28,0-.56,0-.27.14-.14.41c-.41.14-.69.69-1.24.83a3.2,3.2,0,0,1-.69.42,1.12,1.12,0,0,0-.56.27,3.2,3.2,0,0,0-.69.42.76.76,0,0,1-.83.55c-.14,0-.27.14-.41.28s-.14.41-.28.55l-.14-.14c0,.14.14.28.14.42h-.14a.29.29,0,0,1-.27-.28v-.14c-.14-.13-.28,0-.28-.13-.28-.42-.42,0-.69.13s-.42.14-.56.28a.5.5,0,0,0-.13.28h.27a.14.14,0,0,1,.14-.14h.14v.14l-.14.14a1.86,1.86,0,0,0-.83.13.86.86,0,0,0-.83.56,1.14,1.14,0,0,1-.69.69c-.28.28-.69.41-.55.83-.28-.14-.56.14-.7-.28-.27.14-.41.28-.69.42s-.55.69-.83.83c0,.14,0,.14-.13.14-.28-.14-.28-.14-.28.13s.14.28-.14.28a.69.69,0,0,1-.14.42c-.41-.14-.55.27-.83.55a.84.84,0,0,0-.41,1h-.14a.14.14,0,0,0-.14.14h.14l.14-.14a2.76,2.76,0,0,1,.83-.56c-.14-.69.41-.27.69-.69-.14.56-.28.83-.69,1l-.14.14.14.14c.14,0,.14,0,.27-.14a.14.14,0,0,0,.14-.14c.14-.14.28-.28.28-.41s.14-.14.28-.42a2.28,2.28,0,0,1,.27.42c.28-.14.42-.28.69-.42v-.28h.42c0,.14,0,.28-.14.28a8.3,8.3,0,0,1-1.11,1.11l-.13.14a.76.76,0,0,0-.7.41c0,.14-.13.14-.13.28a3.93,3.93,0,0,1-.84.69A12.74,12.74,0,0,1,88.1,57.8c-.13.14-.13.28-.41.42s-.42.41-.69.69a.72.72,0,0,0-.28.55c0,.14-.28.42-.41.56h-.14c.14-.14.14-.14.14-.28V59.6h-.42c-.14.14-.41.14-.28.42.14,0-.13.27-.13.27l-.42.42A8.9,8.9,0,0,0,84,61.81a.14.14,0,0,0-.14.14c.14.56-.41.69-.55,1.25a.49.49,0,0,1-.27.14.14.14,0,0,0-.14-.14,1.41,1.41,0,0,0-.42-.14c0,.14-.14.28-.14.41-.13.28,0,.7-.41,1s-.55.56-1,.56-.55.41-.69.69A3.89,3.89,0,0,1,79,67.07a1.22,1.22,0,0,1-.83.83c-.13,0-.13,0-.13.14s-.28.55-.7.41c-.13,0-.13.14-.13.28a.51.51,0,0,1-.14.42c0,.13-.28.13-.42.13-.14-.41-.27-.13-.27,0s-.14.14-.14.28c.27.14.14.28,0,.28a4.34,4.34,0,0,0-.83.83c-.14.27-.42.41-.69.69s-.42.55-.83.69c-.14,0-.14.28-.28.42a2.66,2.66,0,0,0-.69.41,8.61,8.61,0,0,1-1.66.69A2.7,2.7,0,0,1,69.15,73.43ZM67.77,58.36c-.14,0-.14-.14-.28-.14a.14.14,0,0,1-.14.14.13.13,0,0,1,.14.13C67.63,58.49,67.63,58.49,67.77,58.36Zm4-10.66a.42.42,0,0,1,.14-.27h-.14c0,.14-.14.14-.14.27ZM79,62.37h-.13l-.14.14v.13C78.84,62.51,79,62.51,79,62.37Zm.7-22.69a.42.42,0,0,0,.27-.14c.69-.55,1.39-1.1,2.22-1.8.13,0,.13-.27.41,0v-.13c0-.28.14-.42.42-.56s.55-.55,1-.41a.14.14,0,0,0,.14-.14,6.88,6.88,0,0,0,1.11-1c.14,0,.41-.14.41-.28.28-.41.7-.55,1-.83.42-.41.83-.69,1.25-1.1a12.29,12.29,0,0,0,1.38-1.25,12.26,12.26,0,0,0,1.38-1.24c0-.14.14-.14.28-.28,0,.14,0,.14.14.28a.84.84,0,0,0,.14-.56c.27-.13.41-.41.55-.41.41.14.41-.14.55-.28h-.41l.27-.27c.42.13.56-.14.7-.42s.41-.14.55-.28a4.15,4.15,0,0,1,.69-.83,3.42,3.42,0,0,0,.69-.83c.28-.27.28-.41.56-.13h.13v-.14a.5.5,0,0,0-.13-.28.4.4,0,0,1,.27-.14c.56.14.56.14.69-.41a2,2,0,0,0,.42-.55,1.76,1.76,0,0,0,.41-.56,1.37,1.37,0,0,1,.56-.69l.14-.14a8.39,8.39,0,0,1,.55-.69v.41a.29.29,0,0,0,.28-.27,1.68,1.68,0,0,0,.13-1.11c0-.41.28-.55.42-.69s.41-.28.55,0a4.14,4.14,0,0,0,.56-1.11c0-.14,0-.41.27-.27s.14-.14.28-.14c0-.28.14-.42.14-.69a.43.43,0,0,0,.14-.28c.55,0,.69-.28.69-.69s.27-.69.69-1h.14c.14-.28.14-.69.27-1l.42-.83c0-.14.14-.28.14-.41-.28-.28-.28-.56-.83-.42l-1.25.42c-.14.13-.41.13-.55.27s-.69.56-1,.83a20.44,20.44,0,0,0-2.77,1.94c-.69.55-1.24,1.38-2.21,1.66V20a6.5,6.5,0,0,1-1,.83,20.93,20.93,0,0,1-1.66,1.8,7.17,7.17,0,0,0-1.38,1.52c-.28.27-.55.69-1,1.11a3.58,3.58,0,0,1-.69.82c-.41.42-.83,1.11-1.24,1.53a19.81,19.81,0,0,1-1.25,1.79c-.41.42-.69,1-1.11,1.39-.27.55-.83,1-1.24,1.66a23.49,23.49,0,0,1-1.8,2.63,2.42,2.42,0,0,0-.69,1c-.14.28-.55.42-.69.83s-.42.56-.56.83a6.24,6.24,0,0,1-1.24,1.66.49.49,0,0,0-.14.28Zm.27-.55a.14.14,0,0,0,.14-.14.14.14,0,0,1,.14.14l-.14.14A.14.14,0,0,0,79.94,39.13Zm5.67,20.06v-.28h-.13v.28Zm3-25.87c.14,0,0-.14,0-.42-.28.28-.42.56-.56.69l.14.14ZM90,55.17C90,55,89.9,55,89.9,55a.13.13,0,0,0-.14.13.14.14,0,0,0,.14.14Zm-.14-3.59H90v.14c0,.13-.14.13-.14.27Zm1,1.24a.14.14,0,0,0-.14-.14.14.14,0,1,0,.14.14Zm.14.56c.28-.14.55-.14.83-.28v.14c0,.14,0,.14-.14.14a1.31,1.31,0,0,1-.69.13Zm1.52-.14v-.56a1.93,1.93,0,0,0,.83-.27c0-.14.14-.14.28-.14a.14.14,0,0,0,.14-.14.49.49,0,0,0,.27-.14c.14,0,.28.14.42.28a.14.14,0,0,1-.14.14c-.28.14-.55.14-.69.27q-.63,0-.42.42c.14.14.14.28,0,.28A1.23,1.23,0,0,1,92.53,53.24Zm.28-1.11c.13-.14.13-.28.27-.41s.28-.14.56-.28c0,.14,0,.14-.14.28s-.14.13-.28.27l-.28.28Zm2.07-2.21c-.14-.14-.14-.14-.28-.14h0c0,.14,0,.14.14.28A.14.14,0,0,1,94.88,49.92ZM96,25.57a1.11,1.11,0,0,1,.27-.69h.14c0,.14-.14.28-.14.42s-.13.13-.13.27-.14.14-.14.28C96,25.71,95.85,25.71,96,25.57Zm.27,22.13c0-.13.14-.13.14-.27l-.14-.14a.51.51,0,0,1-.13.41Zm-.13,2.77c.13,0,.27-.14.41-.14a.49.49,0,0,0,.28.14c-.14,0-.28.14-.42.28C96.4,50.61,96.26,50.61,96.13,50.47Zm.69-1.94a.14.14,0,0,1,.14.14v.14C97,48.67,97,48.53,96.82,48.53Zm.69.7c0,.13.14.13.14.13-.14.28-.14.42-.28.56h-.28C97.23,49.64,97.37,49.5,97.51,49.23Zm1.52-25a.14.14,0,0,0-.14.14v.13C99,24.33,99,24.33,99,24.19ZM99.58,48v-.14l.14.14-.14.14Zm1-.69c.14-.14.42-.14.56-.28s.13,0,.13.14-.41.28-.55.42h-.14Zm.69-.55c.14,0,.28,0,.28-.14a.14.14,0,0,0,.14.14c-.14,0-.14,0-.28.13A.13.13,0,0,0,101.24,46.74Zm1.39-.7a2.43,2.43,0,0,1,.69-.27c.14,0,.14,0,.14.14-.28.13-.42.27-.69.41C102.77,46.18,102.63,46.18,102.63,46Zm.69-2.76c.14,0,.14-.14.28-.14v.14a.43.43,0,0,0-.28.14Z"/><path d="M101.93,88.79h-.13c-.28.14-.28.14-.56,0a.49.49,0,0,0-.41-.14,1.46,1.46,0,0,1-1.11-.55,2.59,2.59,0,0,0-.55-.7v-.27c0-.14.14-.42.14-.55-.28-.42.13-.56.27-.7s.56-.41.14-.69v-.41a8.35,8.35,0,0,0,1-1.39c.14-.27.14-.55.41-.83s.56-.69.83-1a.84.84,0,0,0,.14-.56v-.27c.28-.28.56-.42.83-.7s.42-.55.69-.83a2.23,2.23,0,0,0,.28-.69c.14-.41.14-.83.55-1.1a.73.73,0,0,0,.28-.56c-.14-.55.14-1,.42-1.52a5.3,5.3,0,0,0,.69-1.52c.14,0,.14-.14.27-.28s.42-.27.56-.41V73c0-.14,0-.14-.14-.14s-.14-.14-.14-.14a8.31,8.31,0,0,1,1-1.93c0-.14,0-.14.14-.14.14-.28.27-.42.14-.69a1.83,1.83,0,0,1,.13-.83,4.66,4.66,0,0,1,.7-1.11,4.41,4.41,0,0,0,.55-1.11c0-.14.14-.27.28-.41.27-.42.41-.69.69-1.11.14,0,.14-.14.14-.28a2.39,2.39,0,0,1,.83-1.24c.13-.28.27-.55.41-.83l.83-1.25a7.31,7.31,0,0,1,1-1.79c.14-.28.41-.7.55-1,.42-.56.83-1.25,1.25-1.94.27-.41.69-1,1-1.38s.69-.83.69-1.52l.14-.14c.27-.14.41-.28.41-.56a1.74,1.74,0,0,0,.42-.55s.13-.14,0-.14c-.14-.41.13-.69.41-1a7.76,7.76,0,0,0,1.66-2.49c0-.13.28-.27,0-.55a2,2,0,0,1,.28-.55c.27-.69.55-1.39.83-2.08l-.28-.14c-.14.28-.69.14-.83.7,0,.13-.28.27-.55.27-.28.28-.56.28-.83.56-.14,0-.14.27-.14.55s-.14.41-.55.55-.56.28-.83.42-.28.14-.42-.14h-.14c-.27.28-.83.28-.69.83a.5.5,0,0,1-.55.55.14.14,0,0,0-.14.14,7.55,7.55,0,0,1-1.25,1,5.73,5.73,0,0,1-1.52,1c-.41.27-1,.41-1.38.69-.14.14-.28.28-.55.14l-.14.14v.13a2.49,2.49,0,0,1-1.25.56c-.83.27-1.66.41-2.49.69-.69-.28-1.52,0-2.21-.42-.28-.27-.69-.27-.83-.41a2.16,2.16,0,0,1-1-1c-.14-.55-.28-1.24-.41-1.94a5.65,5.65,0,0,1,.69-2.62c.14-.28.41-.7.55-1s.55-.69.69-1a15.51,15.51,0,0,1,1.94-2.91,2.72,2.72,0,0,0,.55-.83c.28-.13.42-.41.69-.55s.42-.41.56-.69a5.92,5.92,0,0,1,1-1,1.71,1.71,0,0,1,.41-.55,1.09,1.09,0,0,1,1.38-.28c.14.14.28.14.42.28s.28.14.41.14c.28.13.56.41.83.55a.67.67,0,0,1,0,1v.14a5,5,0,0,0-1.38,1h-.14c0,.7-.83.7-1,1.25-.13.14-.13.28-.27.41a7.45,7.45,0,0,0-.83,1.11A.72.72,0,0,0,108,46a15.1,15.1,0,0,0-.83,1.53,2.5,2.5,0,0,0-.41.69,1,1,0,0,0-.28.55,9.42,9.42,0,0,1-.42,1.11c-.13.41-.27.83-.41,1.24a.49.49,0,0,0,.28.14,10.65,10.65,0,0,0,1.66-1,12.84,12.84,0,0,0,2.07-1c.28-.13.69-.41,1-.55l.14-.14.83-.41c1-.56,2.07-1.11,3.18-1.8a14.66,14.66,0,0,0,1.8-1.25,14,14,0,0,0,1.52-.83,4.94,4.94,0,0,1,1.11-.69c.41,0,.69-.27,1.1-.41.14-.14.14-.28.28-.28a4.84,4.84,0,0,1,1.11-.41c.13,0,.27.13.13,0v-.14c.14,0,.14-.14.28-.14a5.65,5.65,0,0,1,2.21.28c.28.13.42.27.56.27a8.49,8.49,0,0,1,1.1.69c.14,0,.14.28.28.42s0,.28,0,.41a2.52,2.52,0,0,1-.55,1.39,4.86,4.86,0,0,1-.56,1.24c-.27.56-.69,1.25-1,1.8l-.42.42a2.17,2.17,0,0,0-.55,1,2.84,2.84,0,0,0-.56,1.11L122,52v.14c0,.14-.14.28-.14.42-.27,0-.41,0-.41.27a.51.51,0,0,1-.14.42c-.14.14-.14.27-.28.41a.89.89,0,0,1-.55.69c-.28.14-.28.28-.14.56-.14,0-.14-.14-.27,0V55c.41.27,0,.41-.14.55s-.28.41-.42.55c-.41,0-.41.56-.69.69s-.28.28-.28.42c0,.41-.27.41-.41.41a.43.43,0,0,1-.28.14c-.14,0-.14.28-.14.28.56.28,0,.28,0,.28-.41.13-.27.55-.27.69s0,.14,0,.14,0,.55-.28.69-.55,0-.41.41c0,.14-.42.28-.7.42a1,1,0,0,1-.55-.14c.14.28.55.14.42.41l.13.14a.51.51,0,0,1,.42-.14c-.28.14-.42.7-1,.42-.14,0-.41.14-.55.14a.14.14,0,0,1-.14.14.13.13,0,0,1,.14.13h.27a.14.14,0,0,1,.14.14l-.14.14a3.37,3.37,0,0,1-.69.83.51.51,0,0,0,.42-.14h.14c0,.14,0,.14-.14.14-.28.28-.56.42-.56.83-.13.14-.41.28-.55.42s-.14,0-.14.13c0,.28,0,.42-.14.56-.13.41-.27.83-.41,1.24a.14.14,0,0,1-.14.14v.14a2.08,2.08,0,0,1-.55,1.24c-.14.42-.28.83-.69,1-.14,0-.42.28.13.28,0,.14,0,.14-.13.14a.93.93,0,0,0-.56.83c0,.14-.14.27-.14.41h.56a3.84,3.84,0,0,0,.83-.69l.69-.69h.14c0-.55.55-.55.83-.83s.69-.55,1.1-1c.14,0,.28-.14.42-.28v-.13a.14.14,0,0,0-.14-.14h-.41c.13,0,.13-.14.13-.14h.42a2,2,0,0,0,.83-.28A8.75,8.75,0,0,1,117.7,65c.14-.14.28-.14.42-.28s.55-.28.69-.69v-.14c.83,0,1-.69,1.38-1.11a1,1,0,0,1,.83-.41.3.3,0,0,0,.28-.28c.14-.14.14-.28-.14-.28l-.14-.13h.28c.28.13.42.13.42-.28.13-.14.27-.42.69-.28a1.09,1.09,0,0,0,.55-.27c.42-.14.69-.56,1-.83,0-.14.28-.28.41-.28s.56.14.42-.28c0-.14.41-.27.55-.41a.14.14,0,0,0,.28,0h-.28a.14.14,0,0,1,.14-.14q.21-.42.42,0l.83-.42c.13-.13.41-.27.27-.55-.14,0,0-.14,0-.14.42-.14.42-.69,1-.83.14-.14.28-.41.55-.27a1.9,1.9,0,0,0-.41.55c-.14,0-.14,0-.14.14h.14c.28-.14.69-.28,1-.42s.41-.41.55-.41c.42-.14.55-.28.55-.69a.14.14,0,0,1,.14-.14c.28-.28.56-.42.69-.56.42-.27.83-.41,1.25-.69.14,0,.14-.14.28-.14a1.91,1.91,0,0,1,1.1-.69c.14-.14.28-.14.42-.27l-1.11,1.1c.28,0,.42,0,.55-.14,0-.41.42-.27.56-.41s.41-.14.27-.42a.5.5,0,0,1,.28-.13c.28-.14.55-.42.83-.56l.42-.41h.27a.64.64,0,0,0,.83-.14c.14-.14.28-.14.42-.28s.27-.27.41-.41.42-.42.69-.42a2.15,2.15,0,0,0,1-.55l1.25-.42c.27-.13.55-.13.55-.41.42.28.69-.28,1-.14h-.28l-.14-.14a.14.14,0,0,1,.14-.14h.14c.14,0,.14,0,.28-.13a4.08,4.08,0,0,1,1.24-1l.14.14c-.14,0-.14.13-.28.27v.14h.14c.28-.14.56-.14.83-.28l.14-.13h-.28c-.27,0-.27,0-.41-.14.41-.14.83-.14,1.24-.28l.83-.41,1.66-.83c0-.14.14-.14.28-.14A1.7,1.7,0,0,0,149,46a3.31,3.31,0,0,0,1-.55,1.68,1.68,0,0,1,1.38-.41c.27,0,.41-.14.69-.28s.69-.28,1-.42.69-.41,1.11-.55h.41c-.28.28-.55.42-.83.69-.14,0-.14,0-.14.14a.14.14,0,0,1-.14.14c-.69.28-1.24.83-2.07.69-.28,0-.42.28-.69.42V46h.14c.41-.13.69-.13,1.1-.27.14-.14.28-.14.56-.28a.5.5,0,0,0,.41-.14.14.14,0,0,0,.14.14c-.28.14-.42.28-.69.42-.56.27-1.25.69-1.94,1-1.11.56-2.07,1.11-3,1.66a14.83,14.83,0,0,0-1.52.7c-.42.13-.83.41-1.25.55a.72.72,0,0,1-.55.28c-.28,0-.56.27-.83.41v.28h.14c.27-.14.41-.28.69-.42.55-.27,1.1-.55,1.8-.83a9.34,9.34,0,0,1,1.1-.41c.42-.14.69-.42,1.11-.56s.55-.13,1-.13l-.28.27c-.14,0-.14,0,0,.28,0,0,0,.28-.14.28s-.41.13-.69.27-.41,0-.41.28a.14.14,0,0,1-.14.14c-.28,0-.42.27-.69.14s-.7.13-.7.13a.49.49,0,0,0,.14.28c-.14.14-.27.14-.41.28a.49.49,0,0,1-.28-.14l-.14-.14a3.53,3.53,0,0,0-.69.55,1,1,0,0,0-.55.28,2.92,2.92,0,0,1-.69.55c-.28.14-.7.28-1,.42a2.89,2.89,0,0,0-1.11.55c-.28.28-.55.14-1,.28s-.55.41-.83.55-.41.28-.55.42a3,3,0,0,0-.69.55.14.14,0,0,0-.14.14h.28a.13.13,0,0,0,.13-.14h.42c-.28.14-.42.28-.69.42s-.14.13-.28.13a.5.5,0,0,1-.41.14c.13,0,.13-.14.13-.27a.13.13,0,0,0-.13-.14c-.14.14-.28.14-.42.27s-.14,0-.14.14h-.14a1.6,1.6,0,0,0-1.24.83.49.49,0,0,0-.14.28c-.14-.55-.41-.28-.55-.28a2.76,2.76,0,0,0-.69.42c-.28.14-.42.27-.7.41v.14a.14.14,0,0,0,.14.14H134a.14.14,0,0,1-.14.14c-.42,0-.69.55-1.11.69a1,1,0,0,1-.69.14,2.23,2.23,0,0,1,.28-.69c-.42.27-.56.69-.83,1-.42-.13-.56.14-.83.42a.84.84,0,0,0,.83-.42.14.14,0,0,1,.14.14c0,.14,0,.14-.14.28s-.28.14-.42.28h-.41c-.14.13-.28.27-.28,0s0-.14-.14-.14a.14.14,0,0,0-.14.14v.41c0,.14-.13.14-.13.28l-.14-.14V59.6c.14-.14.14-.41.27-.69a2.25,2.25,0,0,1-.69.55l-.14.14c-.13,0-.13.14-.13.28s-.28.69-.56.69c0,0-.27,0-.27.14a15.93,15.93,0,0,0-1.66,1.1c-.14.28-.28.28-.42.14-.28.28-.28.56-.69.69a.69.69,0,0,0-.55.28,2.53,2.53,0,0,1-1,.69,2.23,2.23,0,0,0-1.11.69c-.28.42-.41.42-.69.42v.14c0,.27-.28.27-.55.41l-.56.56a.44.44,0,0,1-.27.13,2,2,0,0,1-.42.28,3.32,3.32,0,0,0-1,1c0,.14-.27.14-.55.28s-.28.27-.28.41a2,2,0,0,0-.55.42c0,.13-.14.13-.28.27a3.2,3.2,0,0,0-.69.42c-.14.27-.28.41-.55.41s-.14.28-.28.28-.14.28-.28.28c-.13.27-.55.27-.55.69,0,.14-.28.41-.55.55h-.28c0,.42-.28.42-.41.69a1.93,1.93,0,0,0-.42.56,1.41,1.41,0,0,1-.69.55c-.28,0-.69.14-.69.55a1.06,1.06,0,0,1-.28.56.53.53,0,0,1-.41.13.51.51,0,0,1-.42.14c-.14.14,0,.28,0,.42a1,1,0,0,1-.28.55c-.27.28-.55.42-.69.69l-.55.56-.14.13c-.14,0-.14.14-.14.28s-.14.28-.27.42h-.14a1.47,1.47,0,0,1-.69.83h-.14c.14.55-.28.83-.56,1.1a9.73,9.73,0,0,1-1,1.66,11.71,11.71,0,0,1-1.11,1.66,9.42,9.42,0,0,1-.42,1.11c-.13.28-.27.28-.27.55a2.77,2.77,0,0,0-.56,1.11c-.13.14-.27.41-.41.55a1.06,1.06,0,0,0-.28.56v.27c-.41.42-.41,1-.69,1.52a1.37,1.37,0,0,1-.69.56C102.35,89.07,102.07,88.93,101.93,88.79Zm4.15-14.11a.13.13,0,0,0-.13-.14l-.14.14a.14.14,0,0,1,.14.14A.13.13,0,0,1,106.08,74.68Zm1.53-2.91.13-.13c.14-.14,0-.28-.13-.28s-.14.28-.14.41v.14A.14.14,0,0,1,107.61,71.77Zm2.62-.13a.14.14,0,0,1,.14-.14l-.14-.14h-.13v.28Zm1.11-1.11v-.14c-.55.14-.69.14-.69.83C110.93,70.94,111.2,70.81,111.34,70.53Zm2.08-2.63a.53.53,0,0,0,.13-.41h.14c0,.13-.14.27-.14.55A.13.13,0,0,0,113.42,67.9Zm2.35-18.54c.27,0,.41-.13.55-.13h.28l-.14.13a1,1,0,0,1-.55.14A.14.14,0,0,0,115.77,49.36Zm.83,10.38V59.6c-.28.14-.42.14-.69.28v.27h-.14a.49.49,0,0,0,.14.28C116,60.43,116.6,60,116.6,59.74Zm1-4.57h-.42c.14,0,.14.14.28.14Zm1.66,8.17.13-.14c.14,0,.14,0,.14.14a.42.42,0,0,1-.14.27A.46.46,0,0,0,119.23,63.34Zm15.49-10.52.14.14a.43.43,0,0,1-.28.14h-.14C134.58,53,134.72,53,134.72,52.82Zm0,4s.14,0,.14-.13l.14.13-.14.14A.14.14,0,0,1,134.72,56.83Zm1.52-.83c.14-.13.28-.13.55-.27v.14c-.13.13-.41.13-.55.27Zm.83-.41.14-.14h.28c-.14.14-.28.14-.28.28A.14.14,0,0,1,137.07,55.59ZM140,54.07a10.69,10.69,0,0,1,1.38-.83v.14l-1.25.83A.13.13,0,0,0,140,54.07Zm9.26-5.4c-.13.14-.27.14-.55,0Zm0-.14c.14,0,.14-.13.28-.13v.13l-.14.14h-.14Zm.28-.27a.14.14,0,1,1,0-.28c1-.41,2.07-1,3.18-1.38.14-.14.14-.14.28-.14s.14,0,.28,0l-.14.14c-.28,0-.56.14-.56.41s-.27.14-.41.28-.28.14-.42-.14-.55.14-.69.42-.69.69-1,1h-.13C149.94,48.12,149.66,48.26,149.52,48.26Zm4-2.08a.14.14,0,0,0,.14-.14c.14,0,.14,0,.28-.13v.27c0,.14-.14.14-.28.14A.14.14,0,0,0,153.53,46.18Zm.69-.41v.14H154C154.09,45.91,154.09,45.91,154.22,45.77Z"/><path d="M165.84,74.82l-.42-.42a.13.13,0,0,1-.13-.14,5.31,5.31,0,0,0-.42-1.38c-.28-.28,0-.69-.28-1a5.8,5.8,0,0,1,.42-.55c.69-.28,1.24-.42,1.52-1.11.14-.41.42-.55.69-.83s.42-.27,0-.41v-.28c.42-.41.69-.83,1.11-1.24,0,0,.28,0,.28-.14h.27c.14-.56.83-.69,1.11-1.11L171.23,65a20.93,20.93,0,0,1,1.8-1.66,14.76,14.76,0,0,0,1.8-1.39,1.9,1.9,0,0,0,.55-.55l1.25-.83c.14-.14.28-.14.28-.28.27-.27.41-.55.83-.69a8.39,8.39,0,0,1,.55-.69,3.61,3.61,0,0,1,.83-.69c.83-.28,1.11-.83,1.8-1.11l1.24-.83.14.14c-1.24.83-2.35,1.66-3.6,2.63.42.14.56,0,1-.28a15.6,15.6,0,0,1,1.52-1.24,4,4,0,0,0,1-.7,20.06,20.06,0,0,0,2.22-1.38.5.5,0,0,0,.13-.28c-.41.14-.83.28-1.38.42.14,0,.14-.14.14-.28.41,0,.69,0,.69-.55,0-.14.28-.28.55-.42a10.53,10.53,0,0,1,1.8-.69c.42,0,.42-.14.42-.27.14-.56.55-.56.83-.7a4.7,4.7,0,0,1,1.66-.83c.41-.13.83-.55,1.38-.27,0,.14.14,0,.28-.14h.55a.37.37,0,0,0,.42-.42c-.14-.41.13-.55.41-.69s.42-.14.69-.14A82.05,82.05,0,0,0,205.4,19.07c.14-.55.14-1.25.56-1.66a1.21,1.21,0,0,1,1.38-.69v-.14a1.76,1.76,0,0,1,1.11.55,2.51,2.51,0,0,1,.27,2.22V21a2.13,2.13,0,0,1-.27.83,4,4,0,0,1-.28,1.24c-.42,2.22-1,4.43-1.52,6.64-.28,1.11-.56,2.08-.83,3-.28.7-.42,1.39-.69,2.22s-.7,1.8-1.11,2.63a15.17,15.17,0,0,1-1,2.21,9.14,9.14,0,0,1-.83,2.07c-.14.42-.41.7-.55,1.11a6.13,6.13,0,0,0-.69,1.38,5.12,5.12,0,0,0-.7,1.53,12.35,12.35,0,0,0-1.1,1.79.84.84,0,0,0-.14.56.14.14,0,0,0,.14.14,12,12,0,0,0,2.35-.28,14.44,14.44,0,0,1,3.46-.28c1,.14,1.8-.14,2.76,0,.28,0,.14-.14.42-.27a.87.87,0,0,1,.83,0c.14.13.14.27.41,0s.56-.14.83-.28a9,9,0,0,1,1.94,0,5.5,5.5,0,0,0,1.52,0c.14,0,.14-.28.28-.28a.49.49,0,0,1,.41-.14c0-.13,0-.13.14-.27h-.14l.42-.42.14.14h-.14c.14-.14.14-.14.28-.14a.46.46,0,0,1,.13-.27v-.14c-.13-.14-.13-.14-.27-.14a.42.42,0,0,1,.27-.14h.28v-.28c0,.14,0,.14-.14.14l-.14-.14c.14-.13.28-.27.28-.41s.14.14.28.14-.14-.14-.14-.28c-.42,0-.28-.28-.14-.41s.14-.14.14-.28.41-.28.69-.42,0-.41.14-.55.28-.28.41-.41.56,0,.42-.28a.14.14,0,0,1,.14-.14c.27-.14.41-.14.55-.28.28-.41.28-.41.83-.41,0-.14,0-.14-.14-.14-.41,0-.41-.14-.14-.55V40c0-.14,0-.28.14-.28h.14c-.14,0-.14.14-.14.28v.27c.14,0,.14-.13.28-.13,0-.28,0-.42.14-.56s.14-.27.27-.14a.14.14,0,0,1,.14.14l.28-.27.14-.14V39c-.14-.14-.14-.14,0-.42l.41-.83a.49.49,0,0,1,.28.14,2,2,0,0,0,.55-.41v-.14h-.28c-.27.41-.41-.14-.55-.14.14-.14.14-.28.28-.41s.41-.28.69-.42c.14.28.28.28.83-.41h-.28c-.27.13-.41.27-.55,0s-.14-.14-.28,0-.41.13-.55.13h-.14V36a4.14,4.14,0,0,1,1.11-.56v.28c.14,0,.14-.14.28-.14a.13.13,0,0,1,.13-.14c.28.42.56-.14.83-.14,0,0,.14,0,.14-.13h-.14c-.27-.14-.55-.14-.55-.28s.14-.42.14-.55.14-.42.41-.56h.14c-.14-.14-.14-.14-.14-.27a.43.43,0,0,0,.28-.14c0-.14.14-.14.14-.28v-.28l-.14.14c-.14,0-.28.14-.42.14.14-.28-.55-.28-.13-.69.27-.14.41-.42.69-.55a3.55,3.55,0,0,0,.83-1.11c.14-.42.41-.69.55-1.11.14-.27.42-.27.69-.14s.14,0,.14-.13.42-.42.55-.56a.45.45,0,0,1,.14-.27c.14-.14.14-.28.28-.56l.14-.14a.45.45,0,0,0-.28-.13c-.14,0-.28,0-.28.13.28-.41.42-.83,1-1-.14.13-.14.27-.27.41.55-.14.69-.55,1-1h-.28c-.14.14-.28,0-.14-.14a4.4,4.4,0,0,0,.42-.82c.13.55.27.41.41.27s.14-.14.28-.14.13-.27.27-.41c-.14,0-.41-.14-.55-.14.14-.28.41-.55.55-.83l.42-.42a.4.4,0,0,0,.14-.27v-.14l.27-.28a.91.91,0,0,0,.42-1.1.19.19,0,0,1,0-.28H230a.14.14,0,0,0,.14-.14c.28-.28.42-.55.69-.83,0-.14.14-.14.14-.28-.27-.55.28-.69.42-1,.41-.56,1.1-.69,1.24-1.39.14-.27.42-.41.56-.69a.44.44,0,0,0,.13-.27c-.27-.28.14-.28.14-.56a14.51,14.51,0,0,0,1.25-1.52c.27-.28.55-.69.83-1a.49.49,0,0,0,.14-.41c.13-.28.13-.42.41-.42s.42-.55.55-.83,0-.41.42-.27a.74.74,0,0,0,.55-.42c0-.41.42-.55.56-1,.13-.14.27-.27.41-.27l.42.41c.13.14.13.14.27.14s.28-.14.42-.14a5.43,5.43,0,0,1-.56,3.32c0,.14-.13.28-.13.42-.42,1.38-1.53,2.35-2.08,3.73a10.45,10.45,0,0,1-1.11,1.52,11.25,11.25,0,0,1-1,1.8c0,.14-.14.14-.14.28h-.14a10.17,10.17,0,0,1-1.25,2.07c-.27.42-.41.83-.69,1.25a1.09,1.09,0,0,0-.55.55A4.92,4.92,0,0,1,231,27.78a10,10,0,0,0-1,1.53c-.13.41-.55.69-.83,1a.13.13,0,0,1-.13.14c.13.42-.14.69-.42,1.11a5.11,5.11,0,0,0-1,1.38c-.13.14-.13.28-.27.42s-.42.69-.7.83a2.05,2.05,0,0,0-.41.55h.14a5.89,5.89,0,0,1-1,1.52l-.42.42c-.13.14-.13.27-.27.41.14.42-.14.42-.42.56v.27a9.79,9.79,0,0,1-1.1,2.08,4.53,4.53,0,0,0-.42.83,7.53,7.53,0,0,0-.69,1.1c-.41.56-.41,1.11-.83,1.66-.14.14-.28.42-.42.56a2.6,2.6,0,0,1-.55,1.1c0,.14-.14.28-.14.42s-.14,0-.14.14c.14.41-.13.41-.41.55a.43.43,0,0,1-.28.14c.14.41-.27.69-.41,1,.14,0,.14,0,.14.14h-.28c-.14.13-.28.13-.28.27.42,0,.83.14,1.25.14l.14.14c.13.14.13.28.27.41-.41.14-1,.42-1.52.56h-.83c0,.14.14.14.14.27v.14c-.28.28-.42.56-.83.69v.42c.14.14.14.28-.14.41,0,0-.14,0,0,.14s-.27.42-.41.69a3.06,3.06,0,0,1-.42.7,10.85,10.85,0,0,1-1.1,2.21,7.33,7.33,0,0,0-.56,1c-.28.27-.41.41-.28.69s-.27.14-.27.41a6.31,6.31,0,0,1-.55,1l-.42.83c-.14.28-.28.42-.41.69a3.07,3.07,0,0,0-.7,1.53,7,7,0,0,1-.69,1.52c0,.14-.14.27-.27.41a17.21,17.21,0,0,1-1.11,2.77c-.28.69-.83,1.38-1.11,2.07,0,.42-.41.7-.27,1.11v.14c-.7.55-.28,1.38-.83,2.07l-.42.83V73.3a.94.94,0,0,1-1,1,.52.52,0,0,1-.41-.13A2.17,2.17,0,0,1,205,73c-.14-.14-.14-.42-.28-.69a18.58,18.58,0,0,0-.28-2.77c0-.14,0-.28-.13-.28v1.11c0,.14,0,.28-.14.28s0,.14-.14.27c0-.13-.14-.13-.14-.27V69.15c0-.56.69-.83.83-1.39a1.06,1.06,0,0,1,.28-.69c0-.69.14-1.38.14-2.07,0-.14-.14-.42,0-.7a3,3,0,0,1,.55-2.07c.28-.28.28-.69.41-1a.71.71,0,0,1,.28-.55q.21,0,.42-.42v-.14a.45.45,0,0,1-.28-.13.43.43,0,0,1-.28-.14.49.49,0,0,0,.28-.14c.28-.14.55,0,.55-.14a4,4,0,0,0,.56-1.11.5.5,0,0,0-.28-.13.54.54,0,0,0-.42.13,1,1,0,0,1,.14-.69,3.21,3.21,0,0,1,.56-.69c.13,0,.13-.14.13,0,.42.55.42-.14.7-.28a6.38,6.38,0,0,0,.83-1v-.14c-.28-.14-.14-.14,0-.28s.41-.55.69-.83c-.14-.41.14-.69.41-1a.14.14,0,0,1,.14.14c0-.14.14-.14.14-.28h-.28a.29.29,0,0,0,.28-.27h.14c.14-.14.27-.42.41-.56-.14-.13-.14-.13-.27-.13.13-.14.27-.42.41-.56h-.14c-.14-.14-.14-.27-.27-.41a1,1,0,0,0,.55.14.3.3,0,0,0,.28-.28,8.42,8.42,0,0,0,.83-1.11.14.14,0,0,1-.14.14h-.28v-.28c.28-.13.42-.27.42-.55a1,1,0,0,0-.7-.14c-.27.14-.55.42-1,.14-.14-.14-.42.14-.56-.14-.14.14-.27.14-.27.28l-.14.14a.14.14,0,0,1-.14-.14.51.51,0,0,0-.42.14c-.27.14-.41.27-.55-.14s-.28-.28-.41,0-.28.28-.28-.14a.43.43,0,0,1-.28.14c0,.55-.41.41-.69.41H206c-.28,0-.56,0-.7.42h-.13c-1.25.28-2.49.41-3.6.69l-2.08.42a6.69,6.69,0,0,0-1.79.83c-.28.27-.7.27-1,.41a1.74,1.74,0,0,0-1.11.83,11.34,11.34,0,0,0-1.52,2.08c-.28.41-.42.83-.69,1.24a1.7,1.7,0,0,1-.69.69c-.42.42-.7,1-1.25,1.25-.14.14-.28.41-.41.55s0,.28-.14.28a4.71,4.71,0,0,0-1.11,1.24c-.55,1-1.38,1.66-2.07,2.63a2.25,2.25,0,0,1-.7.55c-.83,1-1.66,1.94-2.49,2.77l-2.07,1.66a2.92,2.92,0,0,1-.69.55c-.83.83-1.66,1.53-2.63,2.36-.14.13-.42.13-.69.27s-.42.28-.56.42a12,12,0,0,1-2.76,1.8c-1.11.55-2.22,1-3.46,1.52a8.22,8.22,0,0,1-3.18.55A3.8,3.8,0,0,1,165.84,74.82Zm4.43-2.63a10.13,10.13,0,0,0,1.79-.69v.14c0,.13-.13.13-.27.27l-.14.14a.49.49,0,0,0,.28.14c0,.14.13.14.27.14s.28-.14.56-.14a.73.73,0,0,0-.56-.28c.42,0,.28-.69.83-.41v-.14c-.14-.42.28-.28.42-.14s.55-.14.55-.41h-.14c0-.14,0-.28.14-.28a2.63,2.63,0,0,1,1.38-.69c.14.14.28-.14.42-.28s.28-.55.69-.55c-.14.14-.14.14-.14.27a.29.29,0,0,0-.27.28c.13.14.27.28.41.28l.83-.42c.14-.14.28-.27.42-.27s.41,0,.27-.28a.49.49,0,0,1,.28-.14.14.14,0,0,1,.14-.14c-.14-.55.41-.41.69-.69a.48.48,0,0,0,.41-.14,1.37,1.37,0,0,0,.56-.69l.83-.83c.14,0,.14-.28.14-.28s-.28-.13-.42,0-.41.28-.69.28-.14,0-.28,0a.14.14,0,0,1,.14-.14c.14-.14.28-.55.69-.41.14,0,.14-.14.28-.14h-.28l4.15-4.15.14.14c-.28.14-.41.41-.69.55a20.48,20.48,0,0,1-1.52,1.8c-.28.28-.83.41-.69,1v.27c.13,0,.27,0,.27-.13a3.13,3.13,0,0,1,1.25-1.11c.69-.83,1.52-1.66,2.21-2.35A13.65,13.65,0,0,1,187,60a11.08,11.08,0,0,0,1.11-1.39v-.27c-.28.41-.41.41-.41,0a1.76,1.76,0,0,0-.42.69h-.14c-.14.14-.41.14-.55.27a7.63,7.63,0,0,1-.83,1.11c-.14.28-.28.28-.42.42h-.13c.55-.7,1.1-1.53,1.66-2.22-.56.28-1,.69-1.53,1s-1.1.69-1.66,1-1.38.83-1.93,1.24l-.83.42a4.15,4.15,0,0,1-1,.69l-.83.42c-.14,0-.28.27-.42.41-1,.55-1.79,1.11-2.62,1.66a.14.14,0,0,0-.14.14A22.13,22.13,0,0,1,173.31,68a28.1,28.1,0,0,0-2.77,2.9,3.84,3.84,0,0,0-.55,1,.51.51,0,0,1-.14.42A.51.51,0,0,1,170.27,72.19Zm1.1.55V72.6a.49.49,0,0,1-.41.14v.14C171.1,72.88,171.23,72.74,171.37,72.74Zm4-2.07a.14.14,0,0,1,.14-.14c.28.28.42-.14.56-.28s.13-.14.13-.27h-.27c-.14,0-.28.13-.42.13-.69,0-1,.42-1.38.7h.69v.13h-.41a.3.3,0,0,0-.28.28l.14.14A1.91,1.91,0,0,0,175.38,70.67Zm2.49-2.91h.56c0,.14-.14.14-.28.28Zm.56-.41c.14,0,.27-.14.41-.14v.14c-.14,0-.27.14-.41.14ZM181.75,65c-.14,0-.14-.14-.14,0-.28.13-.42.27-.69.41a.14.14,0,0,1,.14.14C181.33,65.41,181.47,65.13,181.75,65ZM183,55.17l.14-.13c0,.13.14.13.14.27S183.13,55.17,183,55.17Zm2.49-.41a.14.14,0,0,1-.14-.14,3.53,3.53,0,0,0-.69.55C185.07,55.31,185.21,55,185.48,54.76Zm1.94-1c.69-.41,1.11-1,1.94-1.11a8.55,8.55,0,0,0,1.52-.41l.14-.14a.45.45,0,0,0,.13-.28.46.46,0,0,0-.27-.13h-.56c0,.13-.27.13-.27.13-.14.56-.42.56-.83.56h-.14a5.14,5.14,0,0,0-2.08,1.1,3.91,3.91,0,0,0-.83.7.13.13,0,0,0-.13.13.13.13,0,0,0,.13.14C186.59,54.21,187,54.07,187.42,53.79Zm1.52,3.87s-.14,0-.14-.13l-.69.69c.14,0,.14,0,.14.14Zm.69-.83a.13.13,0,0,1-.14-.13l-.55.55a.14.14,0,0,1,.14.14C189.22,57.25,189.36,57,189.63,56.83ZM200.7,49.5c1-.14,2.07-.27,3.18-.41,1.38-.14,2.91-.28,4.29-.28a13.24,13.24,0,0,1,2.35-.14h1.25V48.4c-.28,0-.56.13-.7,0s-.69.13-.69-.42l-.14-.14c0,.14,0,.14-.13.28a.49.49,0,0,1-.14.28,5,5,0,0,1-1.39.13,13.24,13.24,0,0,0-2.35.14c-.69,0-1.52.14-2.21.14a.49.49,0,0,0-.28-.14.14.14,0,0,0,.14-.14,5.81,5.81,0,0,0-.69.14l-2.63.42c-.14,0-.28.27-.41.41Zm3.18,22.27H204c0,.14.14.14.14.28l-.14.14A.51.51,0,0,0,203.88,71.77Zm.28.83c-.14,0,0-.13,0-.27s.14.14.27.14a6.48,6.48,0,0,0,.42,1h-.14C204.57,73.16,204.3,72.88,204.16,72.6Zm3-22.68c.14-.14.14-.28.28-.28-.14-.14-.14-.14-.28-.14-.41.14-1,.28-1.38.42v.14C206.23,50.06,206.79,49.92,207.2,49.92Zm-.83-1.66v-.14h-.28v.14ZM208,57.53v-.14a1.86,1.86,0,0,0-.55.41l.14.14Zm1-2.91c0-.14.14-.14.28-.28h.13c-.13.14-.13.42-.27.56h-.42Zm.55-6.5V48h-.41v.14Zm.56,6.36c0,.14,0,.14-.14.14v.14A.49.49,0,0,0,210.11,54.48Zm.27-1.38h.14c0,.14-.14.28-.14.41h-.14A.48.48,0,0,0,210.38,53.1Zm0,.41v0Zm1.25-5.39V48h-.83v.14Zm-.28,3.46.14-.14v.28A.14.14,0,0,0,211.35,51.58Zm1-3.6c-.14-.14-.14-.28-.28-.28l-.27.28c.13,0,.27.14.41.14Zm.14.55a.54.54,0,0,0-.42-.13v.27A.51.51,0,0,1,212.46,48.53Zm.69,0c.14-.27.28-.41.28-.69h-.83l-.14.14a.8.8,0,0,0,.14.55ZM213,49.92h-.14c0,.14,0,.14-.14.14C212.87,50.06,212.87,49.92,213,49.92Zm1.66-2.77c.14,0,.14-.14.28-.28l-.14-.13c-.14.13-.14.27-.28.41ZM215.5,46h0Zm1.11-1.93a.43.43,0,0,1,.14-.28l-.14-.14a.51.51,0,0,0-.14.42Zm.41-.83.14-.14H217c-.14,0-.14,0-.14.14Zm.83-2.77H218a.49.49,0,0,0,.28.14c-.14.14-.14.14-.28.14S218,40.65,217.85,40.51Zm1.39.14H219c-.14.14-.28.14-.28.28s.14.13.28.13S219.1,40.79,219.24,40.65Zm0-.28h.13a.14.14,0,0,1,.14-.14V40l-.41.41a.14.14,0,0,1,.14.14Zm.82-2.76c-.27.41-.82.55-.69,1.24C219,38.3,219.1,37.88,220.06,37.61Zm.83.55c-.13,0-.13-.14-.27-.14v.14a.14.14,0,0,0,.14.14Zm.7-3.6a.49.49,0,0,1-.14.28h-.14Zm.14,2.77-.14-.14c-.14.14-.14.28-.28.42v.13Zm-.14-2.91c0-.13.14-.13.27-.13v.13a.13.13,0,0,0-.13.14h-.14Zm2.07-2.35a.45.45,0,0,1,.14-.27v-.14c-.14.14-.28.27-.28.41Zm.83-.83c.14-.14.28-.27.42-.27s.27-.14.13-.42v-.28c0-.13,0-.13.14-.27a.14.14,0,0,1-.14-.14c-.13.14-.13.14-.27.14-.28.27-.14.69-.55,1v.27Zm.28-2.63c.55,0,.69-.41,1-.83h.13c-.13.28-.13.56-.27.7s-.56.27-.83.41h-.14A.49.49,0,0,1,224.77,28.61Zm3.46-5.11c0,.13,0,.27-.14.27S228.09,23.63,228.23,23.5Zm4.28-5.95h.14c-.14.27-.27.41-.41.69h-.14A3.38,3.38,0,0,1,232.51,17.55Zm2.77-4.15c.14,0,.14-.14.14-.28a.49.49,0,0,0,.28.14c-.14.14-.14.28-.28.28Zm3.46-3.18c0-.14,0-.14.14-.28a.14.14,0,0,0,.14.14c-.14.14-.14.14-.14.28A.14.14,0,0,1,238.74,10.22Z"/><path d="M231.82,63.34a.49.49,0,0,1-.28-.14,6.78,6.78,0,0,1-1-1.11c-.14,0-.14-.14-.28-.14a22.37,22.37,0,0,0-1.25-2.63c-.13-.27-.27-.41,0-.83a.8.8,0,0,0,.14-.55,1,1,0,0,0,.28-.55v-.28c-.42-.14,0-.28.14-.41a1.12,1.12,0,0,1,.27-.56c0-.41.42-.69.28-1.1l.14-.14A4.58,4.58,0,0,0,231.41,53c.13-.14.27-.28.41-.41.28-.56.69-1.11,1-1.66a.14.14,0,0,0,.14-.14c.55-.14.69-.69,1-1.25.13-.14.27-.14.41-.27.69-1,1.24-1.94,1.94-2.77a3,3,0,0,1,.55-.69.51.51,0,0,0,.14-.42.4.4,0,0,1,.14-.27c.27-.28.55-.56.83-.83.69-.83,1.38-1.53,2.07-2.36.14-.27.14-.27.56-.55.69-.41,2.62,1.11,1.79,2.35a8.74,8.74,0,0,1-.83,1.25,8.21,8.21,0,0,0-1,1.38A12.4,12.4,0,0,1,239,48.53c0,.14-.13.28-.27.42-.56,1-1.25,2.07-1.94,3a.49.49,0,0,0-.14.28c0,.14,0,.28-.14.28a12.35,12.35,0,0,0-1.1,1.79c-.56.83-1.11,1.53-1.66,2.22s-.69,1.24-1.11,1.93a2.92,2.92,0,0,1-.55.83c-.14.28,0,.28.14.28a.41.41,0,0,0,.55,0,12.78,12.78,0,0,0,2.07-.83,13.86,13.86,0,0,0,2.08-1c.28-.14.55-.14.69-.41s.41-.28.83-.14c.14,0,.28-.14.42-.14a2.42,2.42,0,0,1,1-.69,2.25,2.25,0,0,0,1-.55c.14-.14.42-.14.69-.28a7,7,0,0,1,1.11-.55,5.55,5.55,0,0,1,1.52-1,1.69,1.69,0,0,1,1.25-.42l.27-.27v-.14l-.13.14h-.28a.14.14,0,0,1,.14-.14,3.33,3.33,0,0,1,1-.56,3,3,0,0,1,.82-.55,8.21,8.21,0,0,1,1.11-.83c0-.14.14-.14.28-.14s.41,0,.41-.27.42-.28.56-.28.41-.14.55-.28.69-.55,1-.83a1.89,1.89,0,0,1,.83-.27v.13c.41-.13.69-.13,1-.55-.42.14-.56.28-.83.28-.14-.28.14-.42.27-.56.42-.27,1-.27,1.25-.55.14,0,.27-.28.27-.41.14.27.56.27.7-.14a1.58,1.58,0,0,1,1.1-.83.77.77,0,0,1,.69-.42c0-.14.28-.41.28,0h.14a3,3,0,0,0,.69-.41c.14,0,.14-.28.14-.28a3.61,3.61,0,0,1,.83-.69c.41-.14.83-.14,1.11-.28s.41-.14.69-.27a1,1,0,0,0,.55-.14.3.3,0,0,0,.28-.28.94.94,0,0,1,1.24-.41h.42c.69-.14,1.24-.28,1.94-.42l.13-.14c-.13,0-.13-.14-.27-.14a1.26,1.26,0,0,1-.7.14c-.13.14-.27,0-.41,0v-.14c.69,0,1.25-.13,1.94-.13a.13.13,0,0,0-.14.13c.41,0,.83,0,1,.42.13.14.13.28.13.55a.5.5,0,0,0-.13.28c.13.41-.28.41-.42.55a.48.48,0,0,0-.41.14.64.64,0,0,1-.69.42c-.14,0-.28.13-.56.27a2.33,2.33,0,0,0-.69.28h-.28c-.41.69-1.1.55-1.66,1-.14,0-.27.14-.41.27a13.54,13.54,0,0,1-1.38.7c-.84.41-1.66,1-2.63,1.38a23.74,23.74,0,0,1-2.63,1.38c-.69.42-1.38,1-2.21,1.39a8.87,8.87,0,0,1-1,.41l-.28.28-.14.14c-.69.41-1.24.83-1.93,1.24a14.47,14.47,0,0,1-1.53,1.11,4.2,4.2,0,0,0-1.24,1,3.35,3.35,0,0,1-1.39.69,4.61,4.61,0,0,1-1.38.83c-.14,0-.27,0-.27.14l-.7.69c0,.14,0,.14-.13.14-.56.27-1,1-1.66,1.1-.14,0-.14.14-.28.14l-.28.28c-.83.14-1.52,1-2.21,1.52-.42.14-.83.69-1.11,1s-.69.27-1,.41-.27.14-.41.28a.51.51,0,0,0-.42.14,4,4,0,0,1-1.24.27A8.4,8.4,0,0,1,231.82,63.34Zm13.56-25.18a13.88,13.88,0,0,1-1.52-.83c-.42-.42-.83-.69-1-1.25-.14-.27,0-.41.14-.55a1.13,1.13,0,0,0,.55-.55.8.8,0,0,1,.83-.56,1,1,0,0,0,.55-.27,8.35,8.35,0,0,1,1.39-1c.27-.14.55-.28.41-.55a.49.49,0,0,1,.14-.28l.83-.42a.53.53,0,0,1,.41-.13A.89.89,0,0,0,249,31c0-.28.14-.28.28-.14.69.27,1.38-.14,1.94-.28a.65.65,0,0,1,.41-.14.51.51,0,0,1,.14.42V31c0,.55,0,.55.55.55-.41.41-.27,1.11-.83,1.52a22.36,22.36,0,0,0-1.52,1.8,23.49,23.49,0,0,0-1.8,1.8c-.13.14-.13.27-.27.41l-.42.42a3.42,3.42,0,0,0-.69.83.73.73,0,0,1-1.11.14Zm4.7-7.89c0-.13.14,0,.28,0-.14,0-.14.14-.28.14s-.14.14-.41.14C249.8,30.41,249.94,30.27,250.08,30.27Zm1.8,19.37V49.5c-.14,0-.28.14-.42.14v.14C251.6,49.78,251.74,49.64,251.88,49.64Zm11.06-6.78h.14s.14.14,0,.14a.14.14,0,0,1-.14.14h-.41C262.67,43,262.81,43,262.94,42.86Z"/><path d="M245.93,96.67c-.42-.27-.55-.69-.83-1.1a15.1,15.1,0,0,1-.83-1.53c-.14-.69-.55-1.38-.14-2.07a.48.48,0,0,1,.14-.41,2.5,2.5,0,0,1,.28-1,4.55,4.55,0,0,1,.55-1.25c.28-.41.55-1,.83-1.38a35.13,35.13,0,0,1,1.8-3.18c0-.14.14-.42.14-.56.27-.41.41-1,.69-1.38a14.83,14.83,0,0,0,1.1-2.07c.28-.28.42-.83.7-1.11,0-.14.13-.28.13-.42a2.76,2.76,0,0,0,.42-.69c.14-.14.28-.27.41-.41a.73.73,0,0,0,.28-.56v-.13a10.52,10.52,0,0,0,1.11-1.53,3.66,3.66,0,0,0,.69-.83,15.37,15.37,0,0,0,1.38-1.79c.28-.28.69-.7,1-1h.14c.14,0,.28,0,.28-.14a8.27,8.27,0,0,1,1.52-1.66c.14-.28.27-.42.55-.28s.28-.14.42-.27h-.42c.55-.28.69-.83,1.25-.83l.41-.42.14-.14c.41.14.41-.41.55-.55a3,3,0,0,1,.42-.69,11.77,11.77,0,0,1,1.38-1,.6.6,0,0,1,.69-.14c.28.14,1-.55,1-1s.28-.41.55-.55.56-.42.83-.69a7.86,7.86,0,0,0,1.11-1,2,2,0,0,0,.42-.55c.27-.28.55-.7.82-1,.42-.56.84-1,1.11-1.39.14-.13.14-.27.28-.27s.14-.28.14-.42a7.65,7.65,0,0,0,1.24-1.66,6.88,6.88,0,0,1,.83-1.24,3.57,3.57,0,0,0,.69-.83.43.43,0,0,0,.14-.28c.14-.14.28-.28.42-.28a3.57,3.57,0,0,1,.69-.83v-.13c-.14,0-.42.13-.56.13-.55.28-1,.56-1.52.83-1,.56-1.93,1-2.9,1.53a36.32,36.32,0,0,0-3.46,1.66,4.45,4.45,0,0,1-2.63.69,2.57,2.57,0,0,1-2.21-1,5.06,5.06,0,0,1-1.11-3.6,6,6,0,0,1,.42-2.76c.41-.7.55-1.53,1-2.36.41-.55.69-1.38,1.52-1.66.14-.13.27-.27.27-.41a2.93,2.93,0,0,1,1.53-2.08c.83-.41,1.1-1.1,1.79-1.66.42-.27.7-.55,1.25-1s1.38-1,2.21-1.53l.42-.41c.41-.14.69-.42,1.1-.14,0,.14.28,0,.28,0,.42-.69.69,0,1,.14a1,1,0,0,1,.69.28,2.66,2.66,0,0,1,.69.41,8.71,8.71,0,0,0,1.38.55l3.32,1.66a12.44,12.44,0,0,1,1.39,1.25c.14.28-.14.83-.28,1.24a.92.92,0,0,1-1,.56,6.62,6.62,0,0,1-1.66.14c-.69,0-1.66.27-1.66-.56a5,5,0,0,0-.55-1.52,2,2,0,0,0-1.38-.41,5.75,5.75,0,0,0-2.08.55,16.29,16.29,0,0,0-2.49,1.94,15.88,15.88,0,0,0-2.63,2.62,12.19,12.19,0,0,0-1.79,1.94,6.65,6.65,0,0,0-.42,1c-.55.83-1.11,1.8-1.66,2.63-.28.69-.28.83.55.83a5.93,5.93,0,0,0,2.63-.83c.28-.14.56-.14.83-.28,1-.55,2.08-.83,2.91-1.38a10.24,10.24,0,0,0,2.35-1.52c.14-.14.28-.14.41-.28s.7-.55,1-.55c1.11-.28,1.66-1.11,2.63-1.39.14,0,.41-.27.55-.55l.28-.28a6.08,6.08,0,0,0,2.07-1.1,5.9,5.9,0,0,1,1-.83c0-.14.14-.14.28-.14s.14-.28.28-.28a1.3,1.3,0,0,1,1.8-.28c.41.28,1,.7,1.52,1.11a1.14,1.14,0,0,0,.69.42c.27.13.27.27.27.55,0,.83-.55,1-1.1,1.11-.28,0-.42.13-.69.41-.69,1-1.53,1.8-2.22,2.77l-.27.27c-.14.28-.28.42-.42.7a17.23,17.23,0,0,0-1.52,1.79c-.14.14,0,.14-.14.14a1.76,1.76,0,0,0-.41.56,3,3,0,0,0,.83-.56.8.8,0,0,1,.55-.14c.42.28.42-.13.55-.13a1.09,1.09,0,0,0,.56-.56.13.13,0,0,1,.13.14c.28,0,.28.14.14.28-.41.14-.69.55-1,.69s-.42.28-.7.14a1.41,1.41,0,0,0-1.38.55.43.43,0,0,1-.14.28v.14a.14.14,0,0,1,.14-.14l-.55,1c0-.14.14-.14.27-.14a7.39,7.39,0,0,1,1.52-1.11c.84-.55,1.94-1.11,2.91-1.66.28-.28,1-.41,1-1,0-.14.14-.14.27-.27a3.41,3.41,0,0,1,1.25-.56c.14-.27.14-.41.28-.55h-.14v-.14c1-.41,1.94-1.11,2.9-1.52a.51.51,0,0,1,.42-.14v-.14a.84.84,0,0,0,.69-.27c.28-.14.55-.42.83-.56a5.28,5.28,0,0,1,1-.41c.69-.28,1.38-.69,2.21-1H292a53.18,53.18,0,0,1,6.78-2.21,2,2,0,0,0,.83-.14c1-.28,2.08-.42,3-.69.14,0,.42.13.42.27s0,.14,0,.14a5.68,5.68,0,0,1-2.77,1.66,1.51,1.51,0,0,0-1,.42c-.83.27-1.38.55-2.21.83-.55.41-1.38.41-2.07.83-.42.27-.7.41-1.11,0,.28.41.14.55-.28.55-.41.28-10.65,6.09-13.69,8.16h-.28a13,13,0,0,1-1,1.25c-.13.13-.27.13-.41.41-.56.28-1.25.69-2.08,1.11-.55.27-1,.69-1.66,1.1-.27.28-.41.56-.83.56a1.64,1.64,0,0,0-1.38,1.1c-.14.14-.14.14-.28.14a2,2,0,0,0-.83.28l-.27.55h-.14a5.63,5.63,0,0,0-1.8,1.8c-.14.14-.14.28-.28.28-.41.14-.41.55-.69.83a7.49,7.49,0,0,1-.83,1.1,8.51,8.51,0,0,1-1.38,1.8c-.14.14-.28.42-.42.56s-.13.41-.27.55-.42.41-.56.69c-.13,0-.13.28-.27.28s-.42.41-.69.55-.14,0-.28.14c.14,0,.14.14.28.14a3.44,3.44,0,0,0,.27.27c-.14.14-.27.14-.27.28h-.42c-.14,0-.28.28-.14.28.28.41-.14.27-.27.41s-.28.14-.42.14a.51.51,0,0,0,.42.14l-.28.28c-.14.13-.28,0-.42.13s-.13.14-.27.28c.14,0,.14.14.27.14s.14,0,.28.14a.14.14,0,0,0-.14.14,2.85,2.85,0,0,0-.69.41.74.74,0,0,0-.41.55c-.28.42.13.14.27.28l-.14.14a1.58,1.58,0,0,0-1.1.41c0,.14-.14.14-.14.28h.41c.14,0,.28-.14.42-.14l-.28.28a.14.14,0,0,1-.14.14c-.41-.14-.69.14-.83.55,0,.14-.27.28-.27.55a.51.51,0,0,0-.14.42,5.77,5.77,0,0,1-1,.41c-.14.14-.41.14-.55.28l-.42.42c.14.13.42.27.56.13a1.61,1.61,0,0,0,.69-.13v.13l-.42.42-1.24.41c-.28,0-.42.14-.28.42s.14.28.28.41c-.14,0-.28.14-.56.28h.56v.28c-.14,0-.14.14-.28.14h-.83c-.14,0-.14,0-.28.13a.51.51,0,0,1,.42.14c-.42.28-.69.56-1.11.83l-.14.14.28.28c-.28.83-1,.83-1.52,1.1-.14,0-.28.14-.42.28.28,0,.42.14.56,0a1.29,1.29,0,0,0,.69-.41c-.14.41-.14.69-.55.83,0,0-.14,0-.14.13s-.28.14-.42.14a1.91,1.91,0,0,1-.83.28v.14c.28,0,.69.13,1,.13v.14c-.28,0-.41,0-.55.14a.49.49,0,0,0-.28.14c.14.41-.28.41-.55.41l-.14.14.14.14c.14,0,.14.14.27.14s-.41.83-.55.83c-.41,0-.41.28-.69.55s-.28.42-.42.56-.27.41-.41.69v.14c-.55,0-.42.55-.55.83s-.28.41-.42.55-.28.28,0,.55l-.14.14c-.27.14-.55.28-.55.69l-.14.14a1,1,0,0,0-.41,1.11.45.45,0,0,1-.14.27.37.37,0,0,0-.42.42,1.36,1.36,0,0,1-.55.69A.84.84,0,0,1,245.93,96.67Zm4.7-9.68-.14-.14c-.13.14-.27.14-.41.28a.14.14,0,0,1,.14.14C250.36,87.13,250.49,87,250.63,87Zm1.66-3.46c0-.14,0-.14-.14-.14l-.13-.13c-.14.13-.28.41-.42.55s0,.14,0,.14C251.88,83.81,252,83.67,252.29,83.53Zm.28-1v-.13c.55-.14.55-.7.69-1.11.14,0,0-.14,0-.28a.49.49,0,0,0-.28.14c0,.42-.41.69-.69,1.11v.41c-.14,0,0,0,0,.14Zm1,2.63a.49.49,0,0,0,.14-.28c-.42.14-.7.28-1.11.42C253,85.61,253.26,85.19,253.54,85.19Zm.55-5,.14-.14c.55-.13.41-1,1.11-1V79c.27-.42.41-.83.83-1a3.06,3.06,0,0,0,.55-.83h-.42V77a1.4,1.4,0,0,0,1-.55c0-.14.14-.14.28-.28.41-.55,1-1.24,1.38-1.8v-.14c-.14-.13-.14-.13,0-.27s.42-.28.56-.42a1,1,0,0,1,.69-1v-.27c-.42-.14-.14-.28,0-.42-.14,0-.14.14-.28.14a14.43,14.43,0,0,1-1.66,1.38c-.28.28-.55.42-.69.7s-.28.55-.42.69l-.83.83c-.41.55-.69,1.24-1.1,1.8-.56,1-1.25,1.93-1.8,3l.14.14C253.81,80.49,254.23,80.77,254.09,80.21Zm3.32-2.49c-.14-.14-.28-.14-.41-.27l-.42.41a.49.49,0,0,0,.28.14C257,77.86,257.13,77.86,257.41,77.72ZM259.9,74l-.14-.14a.14.14,0,0,0-.14.14c0,.14,0,.14.14.14Zm3.18-8.3c.28-.14.42-.14.56-.28,0,.14.13.14,0,.14s-.28.14-.42.28A.14.14,0,0,0,263.08,65.69ZM277.88,56c-.55.42-.83.7-1.1.42C277.19,56.42,277.05,55.73,277.88,56Zm1.8-1.79c.14-.14.42-.14.55-.42s.56-.14.84-.28c-.14.28-.14.56-.42.56a2,2,0,0,1-1,.27Zm2.63-1.8h.41l.14.14c-.27,0-.14.13-.41.13h-.28Z"/><path d="M309.28,70.81H309a3.21,3.21,0,0,1-1-1,5.47,5.47,0,0,1-1.11-1.94,1.74,1.74,0,0,1-.14-.83,13.18,13.18,0,0,1,0-2.35,4,4,0,0,1,.28-1.25V63.2c.14-.69.14-1.25.28-1.8s.27-.83.41-1.25a3.22,3.22,0,0,1,.55-.83,1.43,1.43,0,0,1,.7-.55c.13-.14.41-.28.55-.55.28-.56.69-1,1-1.52a4.58,4.58,0,0,0,.55-1.11.5.5,0,0,0-.28-.69q-.41,0,0-.42c.14,0,.14-.27.28-.27.14-.28.28-.56.69-.56a1.05,1.05,0,0,0,1-.55c0-.28.28-.42.42-.69s0-.28-.14-.42-.42-.14-.14-.41a3.88,3.88,0,0,0,1.24-1.39v-.55a3,3,0,0,0,.56-.69v-.14c-.28-.14,0-.41.14-.55s.27-.42.41-.69a17,17,0,0,0,1.11-2.22,9.29,9.29,0,0,0,.55-1.1l.14-.14c-.42,0-.69.14-1.11.14l-.14.13c0,.42-.27.42-.55.42s-.55.14-.69.41-.28.14-.42.28c-.41,0-.69.42-1.1.69a3.46,3.46,0,0,0-1,.56c-.14,0-.28.27-.42.27-.55.42-1.1.69-1.52,1-.14.14-.27.28-.27.42a14.59,14.59,0,0,0-1.53,1,5.75,5.75,0,0,0-1.38,1.11,2.11,2.11,0,0,1-1,.55,1.72,1.72,0,0,0-.69.7c-.14.13-.55.27-.69.41-.42.42-.83.69-1.11,1s-.27.14-.27.28c-.28.13-.42.13-.56.27s-.27.56-.55.56-.42.41-.69.55-.28.41-.42.55-.14.14-.27.14c-.14.55-.56.69-1,1s-.56.41-.83.69l-.28.28c-.41.27-.69.55-1.11.83a7,7,0,0,0-1.24,1,.51.51,0,0,1-.42-.14l-.13.41c-.14,0-.28-.14-.42-.14a1.87,1.87,0,0,1-1.11-.69,2.75,2.75,0,0,0-.83-1.1c-.13-.28-.13-.56.14-.7V56.7c0-.28-.14-.42-.27-.7s.13-.83.13-1.1.28-.42.42-.69a.5.5,0,0,0,.28.13c.13-.13.13-.27.13-.55l.14-.14c.28-.27.56-.55.83-.83v-.41c.14-.14.28-.28.42-.28a2.84,2.84,0,0,1,.55-.83,1.19,1.19,0,0,1,.42-.83c0-.28.27-.41.41-.55a8.93,8.93,0,0,0,1.38-2.08c.42-.69,7.2-9.82,7.34-9.82s.41-.28.27-.55c0,0,0-.28.14-.28s.42-.28.55-.41V36.5s0-.14-.13-.14l.13-.14c.42,0,.56-.27.83-.55l.42-.83c.28-.28.41-.55.55-.69a13.33,13.33,0,0,1,1.11-1.52c.55-.83,1.11-1.66,1.66-2.36s.83-1.24,1.24-1.79c.56-.7,1.11-1.39,1.66-2.22a26.87,26.87,0,0,1,1.8-2.21,3,3,0,0,1,1-1.24c.28-.28,0-.42-.14-.42h-.28c.14-.14.14-.14.14-.28a12.29,12.29,0,0,0,1.25-1.38l.83-.83a1.86,1.86,0,0,1,.41-.55,15.13,15.13,0,0,1,1.39-1.53c.41-.55.83-1,1.24-1.52s1-1.24,1.38-1.79a8.3,8.3,0,0,1,1.11-1.11,8.3,8.3,0,0,1,1.11-1.11,5.9,5.9,0,0,1,.83-1l1.24-1.24c.42-.42.83-1,1.39-1.52.27-.28.55-.56.83-.83a2.11,2.11,0,0,1,1.1-.83c.56-.14.7-.56.83-1s.28-.28.56-.28a.7.7,0,0,0,1-.41c.14-.14.14-.14.28-.14h.14c0,.55.42.41.69.41s.28.14.42.28l.41.42c.14.27.42.27.69.13s.42.14.56.28.55.28.41.69a1.41,1.41,0,0,0,.42.14,1.6,1.6,0,0,0,.41.55c0,.14,0,.28.14.28,0,.28.14.42.14.69a.14.14,0,0,1,.14.14,12.29,12.29,0,0,1-.42,2.21,6.25,6.25,0,0,0-.69,1,5.56,5.56,0,0,0-.69,1.25.14.14,0,0,0-.14.14c-.42,0-.28.27-.14.55s-.14.41-.28.69a7.45,7.45,0,0,1-.83,1.11c-.41.27-.41.83-.82,1s-.42.55-.84.69c-.13,0-.13.27-.13.27a1.52,1.52,0,0,0-.14.7h-.14a.49.49,0,0,0-.14-.28c-.14,0-.28.14-.41.28-.28.27-.42.69-.69,1s-.42.56-.56.83v.14c-.14,0-.41.14-.41.28s.13.14.13.27a.54.54,0,0,1-.13.42v-.28c0-.14-.14-.14-.14-.27,0,.13-.14.13-.14.27v.14c-.69.28-.83,1.11-1.66,1.39a.13.13,0,0,1-.14.13c0,.56-.41.83-.83,1.11a.43.43,0,0,1-.14.28,3.51,3.51,0,0,1-.83,1.38c-.41.28-.69.55-1.1.83a11.2,11.2,0,0,0-1.25,1.24c-.14.14-.14.14-.14.28a2.69,2.69,0,0,1-.83,1,.43.43,0,0,1-.14.28v.13a.13.13,0,0,0-.13-.13.51.51,0,0,0-.14-.42l-.42.42-.41.83h-.28c-.14,0-.55,0-.14.27,0,.14-.14.14-.14.28a5.86,5.86,0,0,1-1,.83c0,.14,0,.14-.14.28-.42.27-.83.69-1.25,1,0,.14-.14.14-.27.14-.56.14-.69.83-1.11,1-.14.14-.14.42.14.42s.28.13,0,.41l-.83.83h-.42c0-.14.14-.28.14-.41l.14-.14V34.7h-.28c-.14.14-.27.28-.41.28-.14.27-.42.27-.14.69.14.14.28.41,0,.55s-.28.28-.41.28c-.42.41-.83.41-1.39.69v-.41c-.28.27-.41.55-.69.83-.14,0-.28.41-.28.55l-.27.28c-.56,0-.83.41-1.25.83-.14.13-.55.27-.69.13-.28.14-.41.28-.69.42s-.42.28-.55.41a7.61,7.61,0,0,1-1.66,1.25c-.14,0-.14.14-.28.28s-.14.13-.28.13-.41-.13-.55.28c-.14.14-.28.28-.42.14h-.13c0,.14-.14.14-.14.28-.42.41-.83,1-1.25,1.38v.14a1.09,1.09,0,0,1-.27.55c-.28.42-.56.83-.83,1.25l-1.25,1.66a.49.49,0,0,1-.14.27,2,2,0,0,1-.69,1.52h.14c.55-.41,1.24-.69,1.8-1.1a5.14,5.14,0,0,0,.83-.69.14.14,0,0,0,.14-.14c.13-.42.27-.56.69-.42.14,0,.14-.14.27-.14a4.28,4.28,0,0,0,1.53-1.24h.13c.56.14.83-.42,1.25-.55a2.89,2.89,0,0,0,.83-.56,2.84,2.84,0,0,0,.83-.55l.83-.42a8.54,8.54,0,0,0,1.11-.41c.27-.14.41-.42.69-.55h.14c.13-.14.13-.28.27-.42l.42-.41a1.47,1.47,0,0,0-.14.69.51.51,0,0,1-.42.14v.27a.37.37,0,0,0,.42-.41,2.09,2.09,0,0,0,.55-.56c0-.13.14-.27.28-.13s1-.28,1.11-.56l.13-.14a5.77,5.77,0,0,0,1-.41c.42-.14.69-.28,1.11-.42l-.14-.13H317a.14.14,0,0,1,.14-.14c.14-.14.41-.14.14-.28.13-.14.13-.14.27-.14a2.34,2.34,0,0,1,1-.14h.28c.13,0,.27.14.41.14s.56-.14.69.14a.14.14,0,0,1,.14.14,4.29,4.29,0,0,1,2.49,1.94v.13a13,13,0,0,1-.83,2.22,8.15,8.15,0,0,1-.83,1.52c-.14.28-.28.69-.41,1a17.59,17.59,0,0,1-1,1.52,8.16,8.16,0,0,0-1.25,2.07c-.41.56-.55,1.25-1,1.66a24.18,24.18,0,0,1-1.53,2.36c-.13,0-.27.27-.27.41l-1.25,1.66c-.14.14-.14.42-.28.55a10.42,10.42,0,0,1-1.1,1.53,5.17,5.17,0,0,0-.83,1.52c-.42.55-.69,1.1-1.11,1.66-.14.27-.27.41-.41.69l-.14.14c-.14.55-.28,1-.42,1.52,0,.14-.13.14-.13.28s-.14.55-.14.83a2.63,2.63,0,0,0-.14,1.1,1,1,0,0,0-.14.69.48.48,0,0,0,.69.42c2.49-.69,4.43-2.77,4.84-3V64c.7,0,1-.69,1.52-1.11a5.35,5.35,0,0,0,1.25-.69,6.34,6.34,0,0,1,1-1c.14-.14.41-.41.55-.41a1.74,1.74,0,0,0,1.11-.83c.14-.28.27-.7.69-.56.14.14.41-.14.69-.27a13.24,13.24,0,0,1,1.38-1.25c.42-.28,1-.55,1.53-1,.27-.14.41-.41.55-.55s.14-.14.28-.14c.13-.28.41-.41.55-.55s.42-.69,1-.69c.14.13.55-.14.69-.28.55-.42,1.25-.69,1.52-1.38.28-.28.69-.56,1-.83s.69-.56,1-.83c.55-.28,1.1-.83,1.66-1.11a9.44,9.44,0,0,0,1.11-.69,6.07,6.07,0,0,0,1.52-1c.13,0,.27-.14.41,0a1.74,1.74,0,0,0,1.52-.83c.14-.28.83-.55.83-.42.28.42.56.14.56,0a2.34,2.34,0,0,0,.69-.55l.14-.14c.69-.14.83-.83,1.52-1,.14,0,.27-.13.41-.27s.28-.28.56-.14.13,0,.27,0l.83-.42.14-.13c.14-.28.42-.28.83-.28,0,.14.14,0,.28,0,.14-.28.27-.55.69-.55.14,0,.28,0,.28-.14.27-.42,1-.14,1.38-.56l.14.14.41-.41c.14-.14.14-.14.28-.14a3.42,3.42,0,0,0,1.11-.14.42.42,0,0,0,.27-.14c.28-.14.42-.41.83-.27.14.13.28,0,.42,0l1.66-.42h0c0,.14-.14.42-.14.55l-.14.14c-.69.42-1.24,1-1.94,1.39l-.83.41a13.76,13.76,0,0,1-2.07,1h-.55c-.28,0-.28.14-.28.28s0,.41-.28.55l-1.66.83a6.57,6.57,0,0,0-2.21,1.11c-.42.27-1.11.41-1.52.69s-1,.55-1.25,1l-.83.41a4.15,4.15,0,0,0-.83.69c-.27.14-.83.28-1.1.69a7.23,7.23,0,0,1-1.8,1l-.14.14c-.28.55-1,.69-1.38,1a.49.49,0,0,0-.28.14c0,.41-.28.55-.55.69l-1.25.83a2.84,2.84,0,0,1-.83.55.49.49,0,0,1-.14.28c-.14.28-.27.28-.55.41s-.69.42-1,.56l-.14.14a1.4,1.4,0,0,0-.83.69,5.88,5.88,0,0,0-1,1h-.28a1.27,1.27,0,0,0-.69.55c-.14.14-.14.55-.56.28l-.27.27a.51.51,0,0,1-.14.42,13.63,13.63,0,0,0-1.66,1.38c-.69.55-1.39,1.25-2.08,1.8-.41.41-1.1.55-1.38,1.24-.14.14-.28.14-.42.28-.41.28-.82.69-1.24,1L315.65,68a21.67,21.67,0,0,1-1.8,1.38c-.56.28-1.25.69-1.94,1a6.11,6.11,0,0,0-1.38.55,3.75,3.75,0,0,1-1.25,0Zm-1-32.51,1.25-.83a11.77,11.77,0,0,0,1.38-1c.69-.42,1.11-1.11,1.94-1.38.14-.14.28-.14.28-.28a23.66,23.66,0,0,0,1.93-1.66,6,6,0,0,0,1-.83,22.34,22.34,0,0,0,2.08-1.52,6.79,6.79,0,0,0,1-1,3.6,3.6,0,0,1,1.52-1c0-.14,0-.14.14-.14.28-.41.69-.83,1-1.24.56-.56,1.25-1.11,1.8-1.66s1-1.25,1.52-1.8,1.11-1.24,1.66-1.94c.83-.83,1.52-1.66,2.22-2.49a15.19,15.19,0,0,1,1.38-1.8,7.33,7.33,0,0,1,.83-1.1c.41-.55,1.1-1,1.1-1.66,0-.14,0-.14.14-.14l.83-1.66a19.31,19.31,0,0,0,.83-1.8,3.48,3.48,0,0,0,0-2.07c0-.28-.13-.28-.27-.14s-.42.14-.56.14c-.41.14-1,.14-1.24.41a1.64,1.64,0,0,1-.69.69,3.05,3.05,0,0,1-.56.7,6.85,6.85,0,0,0-1.1.83c-.14,0-.14,0-.14.13-.42.42-.83,1-1.25,1.39-.14.14-.27.14-.27.27a2.18,2.18,0,0,1-1.11,1.11v.14a2.66,2.66,0,0,0-.41.69l-.14.14c-.14,0-.28,0-.28.14-.14.41-.69.55-.69,1.24l-.14.14c-.41.41-.69.83-1.11,1.25a1.06,1.06,0,0,0-.55.55,13.32,13.32,0,0,0-1.24,1.52c-.28.14-.42.41-.7.69s-.41.83-.83,1a4.34,4.34,0,0,0-1,1.24c0,.14-.28.28-.56.56l-.28.27c-.13.14-.13.28-.27.56.14-.14.41-.14.55-.28-.14.56-.55.69-1,.83a.14.14,0,0,0,.14.14c0,.14,0,.14-.14.28-.69.27-.69.13-.83.69-.13.14-.13.14-.13.27l-1.39,1.39c-.14.41-.55.41-.69,1a.88.88,0,0,1-.83,1v.28a.43.43,0,0,0-.14.28c-.14.27-.14.41.14.41h.14c-.28.28-.56.42-.69.69-.28.28-.42.56-.69.83H313c-.14.14-.14.14-.28.14L311.63,34c-.13.14-.27.14-.41.28s-.14,0-.28.13v.14h.28c.28-.14.41-.27.69-.41h.28l-.14.14c-.42.27-.55,1-1.11,1.1v.14c-.27.28-.41.55-.83.69a.49.49,0,0,0-.14.28.75.75,0,0,1-.83.55c0,.14-.13.28-.13.42s-.42.27-.56.27c-.41-.41-.27.14-.41.42-.14,0,0,.14,0,.28A.49.49,0,0,1,308.31,38.3Zm.42-1.11h.14a.14.14,0,0,0-.14-.14c-.14.14-.28.14-.28.28s0,.14,0,.14S308.59,37.33,308.73,37.19ZM310,36l-.27-.28c0,.14-.14.14-.14.28a.13.13,0,0,0,.14.13A.5.5,0,0,1,310,36Zm.83-1.8a1.09,1.09,0,0,0,.56-.56l-.14-.13c-.14.13-.42.27-.55.41s0,.14,0,.28S310.8,34.29,310.8,34.15ZM318.14,40v-.14c-.14.14-.28.14-.42.28A.51.51,0,0,0,318.14,40Zm7.74-14c.14-.14.14-.28.28-.28l-.14-.14c-.14.14-.14.28-.28.42Z"/></svg>