<svg xmlns="http://www.w3.org/2000/svg" viewBox="0 0 578.65 68.27"><path d="M8.62,67.36,0,.82H11.42L16.1,41.49,21.93.9h9.12l6.08,40.42L41.81.82H53.07L44.52,67.36H32.94L26.53,25.22,20.37,67.36Z" style="fill:#59740d"/><path d="M64.73,67.36V.82H78.21V67.36Z" style="fill:#59740d"/><path d="M98.66,67.36V10.84H88.06V.82h34.59v10H112.21V67.36Z" style="fill:#59740d"/><path d="M132.59,67.36V.82h13.55V28.09h11.75V.82h13.55V67.36H157.89V37.87H146.14V67.36Z" style="fill:#59740d"/><path d="M207.1,67.36,220,.82h15l12.81,66.54H235.36l-2.47-14.62H222.38l-2.55,14.62Zm16.51-23h8l-4-26.78Z" style="fill:#87131b"/><path d="M258.44,67.36,259.59.82H274l8.22,42,8.71-42h13.88L306,67.36h-9.86l-1.06-45.18-8.55,45.18h-8.38l-8.79-45.43-1,45.43Z" style="fill:#87131b"/><path d="M319.89.82h16.92q9.62,0,15,3.62t5.38,13.06q0,12.48-9.69,14.13,11.65,1.64,11.66,16.67,0,9.62-5,14.34t-14.41,4.72H319.89Zm16.92,26.86c3.28,0,5.53-.74,6.73-2.21s1.81-3.84,1.81-7.07q0-4.44-2.3-6.37c-1.53-1.28-3.91-1.93-7.14-1.93h-2.55V27.68Zm.41,30.15q4.93,0,6.94-2.46c1.34-1.64,2-4.25,2-7.81,0-3.83-.69-6.58-2.09-8.25S340.31,36.8,337,36.8h-3.61v21Z" style="fill:#87131b"/><path d="M371.39,67.36V.82h13.48V67.36Z" style="fill:#87131b"/><path d="M405.32,67.36V10.84h-10.6V.82h34.59v10H418.87V67.36Z" style="fill:#87131b"/><path d="M439.25,67.36V.82h13.47V67.36Z" style="fill:#87131b"/><path d="M470.46,62.72q-4.51-5.55-4.52-16.31V21.6q0-10.76,4.52-16.18T485.58,0q10.51,0,15.07,5.46t4.56,16.14V46.5q0,10.68-4.56,16.22t-15.07,5.55Q475,68.27,470.46,62.72Zm19.76-6.49a14.47,14.47,0,0,0,1.19-6.45V18.32A14,14,0,0,0,490.22,12c-.8-1.5-2.34-2.26-4.64-2.26s-3.85.76-4.64,2.26a13.81,13.81,0,0,0-1.19,6.37V49.78a14.73,14.73,0,0,0,1.15,6.49c.76,1.54,2.32,2.3,4.68,2.3S489.42,57.79,490.22,56.23Z" style="fill:#87131b"/><path d="M518.35,67.36V.82h9.45l14.79,34.59V.82h11.25V67.36h-9.12l-14.78-36.8v36.8Z" style="fill:#87131b"/><path d="M566.82,67.36v-12h11.83v12Z" style="fill:#87131b"/></svg>